{"glyphs":{"0":{"ha":772,"x_min":null,"x_max":null,"o":"m 704 474 b 382 985 704 815 596 985 b 60 482 169 985 60 813 b 382 -21 60 150 171 -21 b 704 474 590 -21 704 150 z m 579 485 b 379 81 579 206 515 81 b 185 481 250 81 185 211 b 382 876 185 750 250 876 b 579 485 514 876 579 749 z "},"1":{"ha":772,"x_min":null,"x_max":null,"o":"m 482 0 l 482 985 l 401 985 b 142 789 358 833 331 813 l 142 701 l 360 701 l 360 0 z "},"2":{"ha":772,"x_min":null,"x_max":null,"o":"m 710 696 b 394 985 710 863 581 985 b 69 643 193 985 76 882 l 192 643 b 390 878 201 808 269 878 b 585 693 501 878 585 799 b 451 499 585 615 539 549 l 324 426 b 47 0 118 310 58 217 l 703 0 l 703 121 l 185 121 b 363 324 197 201 242 253 l 501 399 b 710 696 639 472 710 575 z "},"3":{"ha":772,"x_min":null,"x_max":null,"o":"m 703 286 b 536 515 703 406 654 475 b 674 714 628 551 674 615 b 374 985 674 883 561 985 b 65 667 175 985 69 876 l 188 667 b 375 878 190 813 250 878 b 549 710 483 878 549 814 b 307 561 549 604 503 561 l 307 458 l 374 458 b 578 285 508 458 578 394 b 374 88 578 161 501 88 b 167 297 240 88 175 154 l 44 297 b 369 -21 60 78 168 -21 b 703 286 572 -21 703 100 z "},"4":{"ha":772,"x_min":null,"x_max":null,"o":"m 722 236 l 722 346 l 576 346 l 576 985 l 486 985 l 39 365 l 39 236 l 454 236 l 454 0 l 576 0 l 576 236 z m 454 346 l 146 346 l 454 776 z "},"5":{"ha":772,"x_min":null,"x_max":null,"o":"m 713 326 b 394 649 713 521 583 649 b 213 589 325 649 269 631 l 251 843 l 661 843 l 661 964 l 153 964 l 79 449 l 192 449 b 372 540 249 517 296 540 b 588 310 504 540 588 456 b 372 88 588 168 506 88 b 171 253 265 88 200 142 l 49 253 b 375 -21 89 57 200 -21 b 713 326 574 -21 713 118 z "},"6":{"ha":772,"x_min":null,"x_max":null,"o":"m 713 306 b 411 613 713 489 588 613 b 185 503 314 613 238 575 b 404 876 186 743 264 876 b 569 728 490 876 550 822 l 692 728 b 413 985 668 889 563 985 b 60 449 183 985 60 792 b 390 -21 60 142 165 -21 b 713 306 578 -21 713 113 z m 588 296 b 392 88 588 172 504 88 b 192 303 278 88 192 176 b 396 504 192 425 275 504 b 588 296 514 504 588 428 z "},"7":{"ha":772,"x_min":null,"x_max":null,"o":"m 722 861 l 722 964 l 64 964 l 64 843 l 596 843 b 192 0 400 596 261 308 l 322 0 b 722 861 376 318 515 615 z "},"8":{"ha":772,"x_min":null,"x_max":null,"o":"m 713 278 b 543 518 713 388 657 464 b 678 722 644 579 678 629 b 382 985 678 876 557 985 b 86 722 208 985 86 876 b 219 518 86 631 119 581 b 51 279 107 464 51 388 b 382 -21 51 99 188 -21 b 713 278 576 -21 713 99 z m 553 719 b 382 567 553 628 485 567 b 211 721 279 567 211 628 b 382 876 211 815 279 876 b 553 719 486 876 553 815 z m 588 276 b 379 88 588 160 504 88 b 176 276 260 88 176 161 b 382 464 176 392 260 464 b 588 276 504 464 588 392 z "},"9":{"ha":772,"x_min":null,"x_max":null,"o":"m 707 515 b 375 985 707 824 600 985 b 53 658 188 985 53 851 b 356 351 53 475 178 351 b 581 461 449 351 517 385 b 361 88 579 221 501 88 b 196 236 275 88 215 142 l 74 236 b 353 -21 97 75 203 -21 b 707 515 583 -21 707 175 z m 574 661 b 369 460 574 540 489 460 b 178 668 251 460 178 536 b 374 878 178 793 261 878 b 574 661 488 878 574 789 z "}," ":{"ha":386,"x_min":null,"x_max":null,"o":""},"!":{"ha":386,"x_min":null,"x_max":null,"o":"m 251 543 l 251 1013 l 136 1013 l 136 543 l 167 233 l 221 233 z m 251 0 l 251 144 l 135 144 l 135 0 z "},"\"":{"ha":493,"x_min":null,"x_max":null,"o":"m 201 831 l 201 985 l 72 985 l 72 831 l 110 644 l 164 644 z m 424 831 l 424 985 l 294 985 l 294 831 l 332 644 l 386 644 z "},"#":{"ha":772,"x_min":null,"x_max":null,"o":"m 753 601 l 753 696 l 624 696 l 674 968 l 567 968 l 518 696 l 344 696 l 394 968 l 289 968 l 239 696 l 71 696 l 71 601 l 221 601 l 178 360 l 19 360 l 19 265 l 160 265 l 107 -28 l 213 -28 l 267 265 l 439 265 l 386 -28 l 492 -28 l 546 265 l 708 265 l 708 360 l 563 360 l 606 601 z m 500 601 l 457 360 l 283 360 l 328 601 z "},"$":{"ha":772,"x_min":null,"x_max":null,"o":"m 719 271 b 601 485 719 369 682 439 b 419 551 565 506 547 513 l 419 897 b 579 721 513 893 578 822 l 689 721 b 419 994 689 879 588 982 l 419 1069 l 338 1069 l 338 994 b 64 717 160 972 64 875 b 163 514 64 629 97 561 b 338 442 199 488 236 472 l 338 64 b 190 143 276 72 221 100 b 156 289 168 174 165 199 l 46 289 b 44 265 46 281 44 272 b 338 -32 44 86 150 -21 l 338 -175 l 419 -175 l 419 -32 b 719 271 615 -18 719 96 z m 338 563 b 176 731 228 592 176 646 b 338 896 176 822 235 882 z m 606 254 b 419 64 606 156 543 78 l 419 429 b 606 254 561 388 606 346 z "},"%":{"ha":1235,"x_min":null,"x_max":null,"o":"m 514 711 b 276 951 514 846 410 951 b 40 714 147 951 40 844 b 278 476 40 583 147 476 b 514 711 407 476 514 583 z m 418 713 b 278 574 418 636 354 574 b 136 714 200 574 136 638 b 276 854 136 792 200 854 b 418 713 356 854 418 792 z m 938 985 l 846 985 l 297 -28 l 389 -28 z m 1193 208 b 956 447 1193 342 1089 447 b 719 211 826 447 719 340 b 957 -26 719 81 826 -26 b 1193 208 1085 -26 1193 81 z m 1097 208 b 957 71 1097 133 1033 71 b 815 211 879 71 815 133 b 956 350 815 288 879 350 b 1097 208 1035 350 1097 288 z "},"&":{"ha":926,"x_min":null,"x_max":null,"o":"m 885 0 l 715 210 b 796 464 767 289 796 381 l 685 464 b 642 299 685 413 669 349 l 457 525 b 649 767 601 607 649 667 b 422 985 649 894 554 985 b 185 767 290 985 185 889 b 297 540 185 701 211 649 b 72 244 125 440 72 371 b 357 -32 72 78 186 -32 b 647 108 474 -32 531 -6 l 733 0 z m 539 769 b 396 599 539 707 504 667 b 299 768 311 696 299 719 b 418 888 299 840 346 888 b 539 769 488 888 539 838 z m 581 190 b 371 76 503 108 443 76 b 189 254 271 76 189 157 b 358 468 189 332 232 388 z "},"'":{"ha":265,"x_min":null,"x_max":null,"o":"m 197 831 l 197 985 l 67 985 l 67 831 l 104 644 l 160 644 z "},"(":{"ha":463,"x_min":null,"x_max":null,"o":"m 404 -294 b 214 360 282 -96 214 138 b 404 1013 214 581 282 815 l 328 1013 b 101 360 189 831 101 578 b 328 -294 101 140 189 -112 z "},")":{"ha":463,"x_min":null,"x_max":null,"o":"m 356 358 b 129 1013 356 578 268 831 l 53 1013 b 243 358 175 814 243 581 b 53 -294 243 138 175 -97 l 129 -294 b 356 358 268 -112 356 140 z "},"*":{"ha":540,"x_min":null,"x_max":null,"o":"m 476 828 l 450 910 l 303 857 l 303 1013 l 222 1013 l 222 857 l 82 910 l 56 828 l 206 786 l 110 663 l 179 613 l 267 742 l 353 613 l 424 663 l 326 786 z "},"+":{"ha":811,"x_min":null,"x_max":null,"o":"m 717 300 l 717 394 l 453 394 l 453 658 l 358 658 l 358 394 l 94 394 l 94 300 l 358 300 l 358 36 l 453 36 l 453 300 z "},",":{"ha":386,"x_min":null,"x_max":null,"o":"m 267 -22 l 267 144 l 121 144 l 121 0 l 204 0 l 204 -25 b 121 -151 204 -121 186 -149 l 121 -204 b 267 -22 218 -204 267 -142 z "},"-":{"ha":463,"x_min":null,"x_max":null,"o":"m 394 333 l 394 433 l 64 433 l 64 333 z "},".":{"ha":386,"x_min":null,"x_max":null,"o":"m 265 0 l 265 144 l 121 144 l 121 0 z "},"/":{"ha":386,"x_min":null,"x_max":null,"o":"m 394 1013 l 318 1013 l -11 -28 l 65 -28 z "},":":{"ha":386,"x_min":null,"x_max":null,"o":"m 265 0 l 265 144 l 121 144 l 121 0 z m 265 583 l 265 728 l 121 728 l 121 583 z "},";":{"ha":386,"x_min":null,"x_max":null,"o":"m 267 583 l 267 728 l 122 728 l 122 583 z m 267 -22 l 267 144 l 121 144 l 121 0 l 204 0 l 204 -25 b 121 -151 204 -121 186 -149 l 121 -204 b 267 -22 218 -204 267 -142 z "},"<":{"ha":811,"x_min":null,"x_max":null,"o":"m 622 -96 l 622 29 l 261 347 l 622 665 l 622 790 l 158 383 l 158 311 z "},"=":{"ha":811,"x_min":null,"x_max":null,"o":"m 717 426 l 717 521 l 94 521 l 94 426 z m 717 174 l 717 268 l 94 268 l 94 174 z "},">":{"ha":811,"x_min":null,"x_max":null,"o":"m 622 311 l 622 383 l 158 790 l 158 665 l 519 347 l 158 29 l 158 -96 z "},"?":{"ha":772,"x_min":null,"x_max":null,"o":"m 697 763 b 401 1029 697 925 582 1029 b 97 704 201 1029 97 918 l 215 704 b 394 921 215 856 271 921 b 572 763 501 921 572 857 b 468 579 572 699 542 644 b 363 474 386 506 386 506 b 324 353 333 435 324 403 l 324 276 l 449 276 l 449 342 b 558 514 449 401 464 426 b 697 763 663 608 697 671 z m 449 0 l 449 144 l 324 144 l 324 0 z "},"@":{"ha":1410,"x_min":null,"x_max":null,"o":"m 1321 513 b 729 1029 1321 794 1053 1029 b 47 358 358 1029 47 721 b 679 -197 47 50 328 -197 b 993 -139 782 -197 893 -176 l 954 -46 b 686 -90 840 -78 761 -90 b 165 379 392 -90 165 114 b 711 922 165 671 418 922 b 1200 496 976 922 1200 728 b 967 176 1200 333 1085 176 b 897 238 929 176 897 204 b 914 307 896 250 903 275 l 1039 696 l 924 696 l 893 604 b 724 725 858 683 800 725 b 367 340 538 725 367 542 b 593 86 367 196 464 86 b 790 186 667 86 726 117 b 943 79 803 115 856 79 b 1321 513 1160 79 1321 306 z m 846 503 b 629 175 839 333 738 175 b 492 339 553 175 492 247 b 715 636 492 494 599 636 b 846 510 790 636 846 582 z "},"A":{"ha":926,"x_min":null,"x_max":null,"o":"m 907 0 l 551 1013 l 385 1013 l 24 0 l 161 0 l 268 304 l 658 304 l 763 0 z m 622 413 l 300 413 l 467 874 z "},"B":{"ha":926,"x_min":null,"x_max":null,"o":"m 865 289 b 681 535 865 411 810 485 b 821 756 772 578 821 653 b 521 1013 821 903 713 1013 l 110 1013 l 110 0 l 567 0 b 865 289 749 0 865 122 z m 692 738 b 489 576 692 635 632 576 l 239 576 l 239 899 l 489 899 b 692 738 632 899 692 840 z m 736 288 b 554 114 736 190 676 114 l 239 114 l 239 463 l 554 463 b 736 288 676 463 736 386 z "},"C":{"ha":1003,"x_min":null,"x_max":null,"o":"m 940 369 l 807 369 b 525 89 776 178 696 89 b 196 496 324 89 196 243 b 514 924 196 756 318 924 b 788 699 672 924 756 853 l 919 699 b 529 1038 879 921 751 1038 b 67 494 222 1038 67 790 b 524 -25 67 199 226 -25 b 940 369 771 -25 910 106 z "},"D":{"ha":1003,"x_min":null,"x_max":null,"o":"m 926 507 b 514 1013 926 821 771 1013 l 124 1013 l 124 0 l 514 0 b 926 507 769 0 926 192 z m 797 506 b 492 114 797 250 692 114 l 253 114 l 253 899 l 492 899 b 797 506 692 899 797 764 z "},"E":{"ha":926,"x_min":null,"x_max":null,"o":"m 851 0 l 851 114 l 254 114 l 254 461 l 806 461 l 806 575 l 254 575 l 254 899 l 826 899 l 826 1013 l 125 1013 l 125 0 z "},"F":{"ha":849,"x_min":null,"x_max":null,"o":"m 804 899 l 804 1013 l 125 1013 l 125 0 l 254 0 l 254 461 l 738 461 l 738 575 l 254 575 l 254 899 z "},"G":{"ha":1081,"x_min":null,"x_max":null,"o":"m 985 0 l 985 535 l 563 535 l 563 421 l 871 421 l 871 393 b 553 89 871 213 738 89 b 190 503 324 89 190 256 b 546 924 190 751 332 924 b 839 706 700 924 811 836 l 971 706 b 547 1038 935 911 779 1038 b 61 496 238 1038 61 799 b 525 -25 61 185 251 -25 b 871 133 663 -25 772 24 l 903 0 z "},"H":{"ha":1003,"x_min":null,"x_max":null,"o":"m 894 0 l 894 1013 l 765 1013 l 765 575 l 244 575 l 244 1013 l 115 1013 l 115 0 l 244 0 l 244 461 l 765 461 l 765 0 z "},"I":{"ha":386,"x_min":null,"x_max":null,"o":"m 268 0 l 268 1013 l 139 1013 l 139 0 z "},"J":{"ha":694,"x_min":null,"x_max":null,"o":"m 592 260 l 592 1013 l 463 1013 l 463 307 b 307 83 463 140 406 83 b 156 267 210 83 156 149 l 156 325 l 26 325 l 26 243 b 306 -25 26 79 129 -25 b 592 260 482 -25 592 85 z "},"K":{"ha":926,"x_min":null,"x_max":null,"o":"m 914 0 l 497 600 l 910 1013 l 743 1013 l 239 500 l 239 1013 l 110 1013 l 110 0 l 239 0 l 239 354 l 404 519 l 761 0 z "},"L":{"ha":772,"x_min":null,"x_max":null,"o":"m 740 0 l 740 114 l 240 114 l 240 1013 l 111 1013 l 111 0 z "},"M":{"ha":1157,"x_min":null,"x_max":null,"o":"m 1057 0 l 1057 1013 l 878 1013 l 583 131 l 283 1013 l 104 1013 l 104 0 l 226 0 l 226 849 l 514 0 l 650 0 l 935 849 l 935 0 z "},"N":{"ha":1003,"x_min":null,"x_max":null,"o":"m 897 0 l 897 1013 l 775 1013 l 775 185 l 246 1013 l 106 1013 l 106 0 l 228 0 l 228 821 l 751 0 z "},"O":{"ha":1081,"x_min":null,"x_max":null,"o":"m 1031 490 b 540 1038 1031 817 838 1038 b 53 499 250 1038 53 815 b 542 -25 53 182 250 -25 b 1031 490 839 -25 1031 193 z m 901 493 b 542 89 901 249 756 89 b 182 499 326 89 182 249 b 540 924 182 749 326 924 b 901 493 760 924 901 749 z "},"P":{"ha":926,"x_min":null,"x_max":null,"o":"m 857 715 b 544 1013 857 906 744 1013 l 126 1013 l 126 0 l 256 0 l 256 429 l 574 429 b 857 715 740 429 857 547 z m 722 721 b 525 543 722 610 649 543 l 256 543 l 256 899 l 525 899 b 722 721 649 899 722 832 z "},"Q":{"ha":1081,"x_min":null,"x_max":null,"o":"m 1031 501 b 542 1038 1031 815 833 1038 b 53 499 250 1038 53 815 b 542 -25 53 182 250 -25 b 807 46 642 -25 725 -3 l 953 -75 l 1018 6 l 888 113 b 1031 501 983 218 1031 342 z m 901 500 b 792 190 901 369 867 275 l 668 292 l 604 214 l 707 128 b 540 89 647 100 601 89 b 182 499 325 89 182 249 b 542 924 182 749 326 924 b 901 500 757 924 901 749 z "},"R":{"ha":1003,"x_min":null,"x_max":null,"o":"m 943 0 l 943 32 b 882 236 894 65 883 101 b 744 500 879 403 854 453 b 904 742 858 556 904 626 b 596 1013 904 917 794 1013 l 129 1013 l 129 0 l 258 0 l 258 436 l 592 436 b 758 256 706 436 760 381 l 757 165 b 786 0 756 103 768 42 z m 769 724 b 571 550 769 604 708 550 l 258 550 l 258 899 l 571 899 b 769 724 715 899 769 838 z "},"S":{"ha":926,"x_min":null,"x_max":null,"o":"m 863 278 b 647 532 863 403 785 494 l 393 600 b 226 750 271 632 226 672 b 453 929 226 853 317 929 b 706 724 614 929 706 856 l 828 724 b 457 1038 828 922 690 1038 b 97 732 235 1038 97 915 b 296 496 97 608 163 531 l 547 429 b 733 265 675 396 733 344 b 475 89 733 154 650 89 b 189 329 283 89 189 185 l 67 329 b 467 -25 67 90 228 -25 b 863 278 724 -25 863 97 z "},"T":{"ha":849,"x_min":null,"x_max":null,"o":"m 824 899 l 824 1013 l 29 1013 l 29 899 l 363 899 l 363 0 l 492 0 l 492 899 z "},"U":{"ha":1003,"x_min":null,"x_max":null,"o":"m 896 308 l 896 1013 l 767 1013 l 767 308 b 506 89 767 172 668 89 b 247 308 354 89 247 161 l 247 1013 l 118 1013 l 118 308 b 506 -25 118 103 265 -25 b 896 308 743 -25 896 106 z "},"V":{"ha":926,"x_min":null,"x_max":null,"o":"m 896 1013 l 758 1013 l 478 156 l 181 1013 l 42 1013 l 406 0 l 544 0 z "},"W":{"ha":1311,"x_min":null,"x_max":null,"o":"m 1290 1013 l 1146 1013 l 960 190 l 729 1013 l 590 1013 l 365 190 l 175 1013 l 31 1013 l 290 0 l 432 0 l 658 832 l 892 0 l 1033 0 z "},"X":{"ha":926,"x_min":null,"x_max":null,"o":"m 901 0 l 543 519 l 885 1013 l 731 1013 l 469 615 l 210 1013 l 53 1013 l 389 519 l 31 0 l 188 0 l 465 422 l 742 0 z "},"Y":{"ha":926,"x_min":null,"x_max":null,"o":"m 918 1013 l 764 1013 l 475 519 l 178 1013 l 18 1013 l 408 397 l 408 0 l 538 0 l 538 397 z "},"Z":{"ha":849,"x_min":null,"x_max":null,"o":"m 810 0 l 810 114 l 201 114 l 807 896 l 807 1013 l 78 1013 l 78 899 l 647 899 l 39 114 l 39 0 z "},"[":{"ha":386,"x_min":null,"x_max":null,"o":"m 347 -294 l 347 -194 l 204 -194 l 204 913 l 347 913 l 347 1013 l 89 1013 l 89 -294 z "},"\\":{"ha":386,"x_min":null,"x_max":null,"o":"m 394 -28 l 65 1013 l -11 1013 l 318 -28 z "},"]":{"ha":386,"x_min":null,"x_max":null,"o":"m 290 -294 l 290 1013 l 32 1013 l 32 913 l 175 913 l 175 -194 l 32 -194 l 32 -294 z "},"^":{"ha":651,"x_min":null,"x_max":null,"o":"m 590 457 l 375 985 l 274 985 l 61 457 l 157 457 l 325 874 l 494 457 z "},"_":{"ha":772,"x_min":null,"x_max":null,"o":"m 803 -246 l 803 -176 l -31 -176 l -31 -246 z "},"`":{"ha":463,"x_min":null,"x_max":null,"o":"m 272 807 l 139 1013 l -18 1013 l 189 807 z "},"a":{"ha":772,"x_min":null,"x_max":null,"o":"m 743 3 l 743 90 b 718 88 731 88 725 88 b 656 144 678 88 656 108 l 656 550 b 382 749 656 679 561 749 b 90 513 206 749 97 681 l 207 513 b 378 642 217 601 269 642 b 540 533 482 642 540 603 l 540 503 b 419 422 540 454 511 433 b 186 378 256 401 231 396 b 58 189 101 343 58 278 b 297 -21 58 57 150 -21 b 544 86 390 -21 481 18 b 664 -10 557 31 607 -10 b 743 3 688 -10 706 -7 z m 540 251 b 322 81 540 147 435 81 b 179 192 232 81 179 113 b 354 319 179 268 231 301 b 540 360 476 336 501 342 z "},"b":{"ha":772,"x_min":null,"x_max":null,"o":"m 726 372 b 415 749 726 608 607 749 b 190 629 315 749 244 711 l 190 1013 l 75 1013 l 75 0 l 179 0 l 179 104 b 410 -21 235 19 308 -21 b 726 372 601 -21 726 136 z m 606 365 b 393 88 606 200 519 88 b 190 364 271 88 190 199 b 393 640 190 535 271 646 b 606 365 522 640 606 528 z "},"c":{"ha":694,"x_min":null,"x_max":null,"o":"m 663 250 l 546 250 b 368 86 526 133 467 86 b 164 357 240 86 164 185 b 365 642 164 539 239 642 b 538 483 463 642 524 585 l 654 483 b 367 749 640 661 529 749 b 43 357 171 749 43 599 b 365 -21 43 122 168 -21 b 663 250 539 -21 649 83 z "},"d":{"ha":772,"x_min":null,"x_max":null,"o":"m 688 0 l 688 1013 l 572 1013 l 572 636 b 349 749 524 710 446 749 b 36 371 160 749 36 603 b 353 -21 36 125 157 -21 b 585 107 453 -21 522 17 l 585 0 z m 572 361 b 369 88 572 193 492 88 b 157 364 242 88 157 194 b 368 640 157 533 242 640 b 572 361 493 640 572 529 z "},"e":{"ha":772,"x_min":null,"x_max":null,"o":"m 713 331 b 683 557 713 436 704 503 b 389 749 636 676 525 749 b 56 360 186 749 56 599 b 386 -21 56 121 182 -21 b 697 221 553 -21 668 74 l 581 221 b 390 86 549 125 483 86 b 176 331 269 86 179 164 z m 589 433 b 588 425 589 433 589 428 l 179 425 b 388 642 189 554 271 642 b 589 433 501 642 589 547 z "},"f":{"ha":386,"x_min":null,"x_max":null,"o":"m 358 633 l 358 728 l 238 728 l 238 842 b 318 915 238 890 265 915 b 358 914 328 915 332 915 l 358 1010 b 293 1017 332 1015 317 1017 b 122 851 186 1017 122 956 l 122 728 l 25 728 l 25 633 l 122 633 l 122 0 l 238 0 l 238 633 z "},"g":{"ha":772,"x_min":null,"x_max":null,"o":"m 679 119 l 679 728 l 572 728 l 572 622 b 350 749 514 708 443 749 b 40 357 165 749 40 593 b 340 -21 40 128 169 -21 b 572 110 432 -21 496 18 l 572 61 b 358 -206 572 -132 493 -206 b 182 -83 267 -206 196 -172 l 64 -83 b 354 -303 76 -221 183 -303 b 679 119 582 -303 679 -201 z m 561 360 b 364 86 561 186 486 86 b 161 364 238 86 161 188 b 363 642 161 539 239 642 b 561 360 488 642 561 536 z "},"h":{"ha":772,"x_min":null,"x_max":null,"o":"m 675 0 l 675 550 b 446 749 675 672 588 749 b 213 628 343 749 281 717 l 213 1013 l 97 1013 l 97 0 l 213 0 l 213 401 b 410 647 213 550 290 647 b 560 504 492 647 560 600 l 560 0 z "},"i":{"ha":308,"x_min":null,"x_max":null,"o":"m 213 0 l 213 728 l 97 728 l 97 0 z m 228 838 l 228 982 l 83 982 l 83 838 z "},"j":{"ha":308,"x_min":null,"x_max":null,"o":"m 213 -151 l 213 728 l 97 728 l 97 -106 b 3 -201 97 -175 74 -206 l -25 -200 l -25 -299 b 14 -303 -11 -301 -4 -303 b 213 -151 144 -303 213 -250 z m 228 838 l 228 982 l 83 982 l 83 838 z "},"k":{"ha":694,"x_min":null,"x_max":null,"o":"m 697 0 l 400 476 l 653 728 l 504 728 l 196 419 l 196 1013 l 81 1013 l 81 0 l 196 0 l 196 283 l 308 394 l 554 0 z "},"l":{"ha":308,"x_min":null,"x_max":null,"o":"m 210 0 l 210 1013 l 94 1013 l 94 0 z "},"m":{"ha":1157,"x_min":null,"x_max":null,"o":"m 1056 0 l 1056 546 b 847 749 1056 676 983 749 b 624 638 750 749 692 719 b 428 749 581 715 522 749 b 204 625 331 749 267 713 l 204 728 l 99 728 l 99 0 l 214 0 l 214 457 b 385 647 214 563 290 647 b 519 501 471 647 519 594 l 519 0 l 635 0 l 635 457 b 807 647 635 563 713 647 b 940 501 892 647 940 593 l 940 0 z "},"n":{"ha":772,"x_min":null,"x_max":null,"o":"m 676 0 l 676 550 b 446 749 676 671 586 749 b 204 606 338 749 268 707 l 204 728 l 97 728 l 97 0 l 213 0 l 213 401 b 411 647 213 550 293 647 b 561 504 503 647 561 592 l 561 0 z "},"o":{"ha":772,"x_min":null,"x_max":null,"o":"m 708 358 b 378 749 708 610 588 749 b 50 364 174 749 50 608 b 379 -21 50 119 172 -21 b 708 358 583 -21 708 119 z m 588 360 b 379 86 588 189 507 86 b 171 364 250 86 171 188 b 379 642 171 539 250 642 b 588 360 510 642 588 540 z "},"p":{"ha":772,"x_min":null,"x_max":null,"o":"m 726 357 b 414 749 726 601 607 749 b 182 618 315 749 236 704 l 182 728 l 76 728 l 76 -303 l 192 -303 l 192 88 b 415 -21 253 13 321 -21 b 726 357 603 -21 726 125 z m 606 360 b 394 88 606 194 521 88 b 192 358 272 88 192 188 b 394 640 192 529 272 640 b 606 360 522 640 606 533 z "},"q":{"ha":772,"x_min":null,"x_max":null,"o":"m 688 -303 l 688 728 l 585 728 l 585 631 b 353 749 531 707 449 749 b 36 356 161 749 36 597 b 347 -21 36 119 156 -21 b 572 94 449 -21 518 15 l 572 -303 z m 572 360 b 369 88 572 193 492 88 b 157 364 242 88 157 194 b 369 640 157 532 242 640 b 572 360 493 640 572 529 z "},"r":{"ha":463,"x_min":null,"x_max":null,"o":"m 446 626 l 446 744 b 401 749 426 747 417 749 b 203 596 326 749 269 704 l 203 728 l 97 728 l 97 0 l 213 0 l 213 378 b 446 626 213 542 267 624 z "},"s":{"ha":694,"x_min":null,"x_max":null,"o":"m 638 204 b 432 401 638 313 576 367 l 321 428 b 186 532 226 450 186 481 b 340 642 186 599 246 642 b 486 525 433 642 483 601 l 608 525 b 344 749 607 668 513 749 b 65 526 175 749 65 661 b 296 317 65 413 124 358 l 404 290 b 517 194 485 271 517 247 b 347 86 517 126 449 86 b 169 222 243 86 185 111 l 47 222 b 338 -21 53 54 147 -21 b 638 204 521 -21 638 64 z "},"t":{"ha":386,"x_min":null,"x_max":null,"o":"m 353 0 l 353 97 b 297 92 338 93 319 92 b 233 157 247 92 233 106 l 233 633 l 353 633 l 353 728 l 233 728 l 233 928 l 118 928 l 118 728 l 19 728 l 19 633 l 118 633 l 118 106 b 258 -10 118 32 168 -10 b 353 0 286 -10 314 -7 z "},"u":{"ha":772,"x_min":null,"x_max":null,"o":"m 669 0 l 669 728 l 554 728 l 554 326 b 356 81 554 178 476 81 b 206 224 264 81 206 136 l 206 728 l 90 728 l 90 178 b 322 -21 90 57 181 -21 b 565 113 429 -21 497 17 l 565 0 z "},"v":{"ha":694,"x_min":null,"x_max":null,"o":"m 675 728 l 544 728 l 339 138 l 144 728 l 14 728 l 269 0 l 396 0 z "},"w":{"ha":1003,"x_min":null,"x_max":null,"o":"m 983 728 l 853 728 l 708 161 l 565 728 l 424 728 l 285 161 l 136 728 l 8 728 l 219 0 l 350 0 l 490 571 l 638 0 l 769 0 z "},"x":{"ha":694,"x_min":null,"x_max":null,"o":"m 657 0 l 406 376 l 650 728 l 519 728 l 344 464 l 169 728 l 38 728 l 281 371 l 24 0 l 156 0 l 340 279 l 522 0 z "},"y":{"ha":694,"x_min":null,"x_max":null,"o":"m 664 728 l 539 728 l 338 161 l 151 728 l 28 728 l 274 -3 l 229 -118 b 136 -189 210 -169 186 -189 b 75 -181 119 -189 100 -186 l 75 -285 b 153 -303 99 -297 122 -303 b 340 -153 235 -303 301 -257 z "},"z":{"ha":694,"x_min":null,"x_max":null,"o":"m 635 0 l 635 101 l 183 101 l 615 625 l 615 728 l 72 728 l 72 626 l 478 626 l 43 104 l 43 0 z "},"{":{"ha":464,"x_min":null,"x_max":null,"o":"m 383 -294 l 383 -204 l 363 -204 b 275 -111 294 -204 275 -183 l 275 140 b 161 360 275 256 239 324 b 275 578 246 393 275 450 l 275 829 b 363 922 275 901 294 922 l 383 922 l 383 1013 l 319 1013 b 168 831 224 1013 168 946 l 168 599 b 60 407 168 469 142 424 l 60 311 b 168 119 142 294 168 247 l 168 -112 b 319 -294 168 -228 224 -294 z "},"|":{"ha":361,"x_min":null,"x_max":null,"o":"m 228 -294 l 228 1013 l 133 1013 l 133 -294 z "},"}":{"ha":464,"x_min":null,"x_max":null,"o":"m 364 311 l 364 407 b 258 599 285 424 258 471 l 258 831 b 106 1013 258 946 203 1013 l 40 1013 l 40 922 l 63 922 b 151 829 132 922 151 901 l 151 578 b 265 358 151 464 188 394 b 151 140 188 324 151 256 l 151 -111 b 63 -204 151 -183 132 -204 l 40 -204 l 40 -294 l 106 -294 b 258 -112 203 -294 258 -228 l 258 119 b 364 311 258 247 285 294 z "},"~":{"ha":811,"x_min":null,"x_max":null,"o":"m 706 549 l 706 571 l 632 571 b 561 467 632 497 613 467 b 492 490 542 467 519 474 l 329 586 b 254 608 306 600 279 608 b 104 407 164 608 111 538 l 178 407 b 251 515 185 483 213 515 b 311 496 265 515 297 504 l 447 408 b 560 372 482 386 525 372 b 706 549 649 372 706 442 z "}," ":{"ha":386,"x_min":null,"x_max":null,"o":""},"¡":{"ha":386,"x_min":null,"x_max":null,"o":"m 250 -285 l 250 185 l 219 494 l 165 494 l 135 185 l 135 -285 z m 251 583 l 251 728 l 135 728 l 135 583 z "},"¢":{"ha":772,"x_min":null,"x_max":null,"o":"m 708 250 l 592 250 b 433 74 575 140 522 83 l 433 642 b 583 483 518 635 574 576 l 700 483 b 433 749 692 642 596 738 l 433 872 l 375 872 l 375 747 b 72 351 188 728 72 578 b 375 -31 72 131 188 -14 l 375 -167 l 433 -167 l 433 -32 b 708 250 594 -24 699 83 z m 375 76 b 193 351 260 94 193 194 b 375 640 193 519 256 618 z "},"£":{"ha":772,"x_min":null,"x_max":null,"o":"m 743 46 l 685 138 b 569 96 644 110 606 96 b 346 139 539 96 399 139 b 176 85 286 139 231 121 b 340 347 301 211 340 275 b 319 446 340 374 333 406 l 508 446 l 508 522 l 286 522 b 204 726 219 656 204 661 b 400 904 204 833 282 904 b 589 690 521 904 585 833 l 711 690 b 406 1013 707 910 592 1013 b 75 715 219 1013 75 883 b 149 522 75 654 85 628 l 36 522 l 36 446 l 189 446 b 222 338 210 411 222 372 b 49 72 222 253 176 182 l 115 -19 b 267 32 168 15 218 32 b 358 17 296 32 329 26 b 561 -32 474 -24 510 -32 b 743 46 633 -32 688 -8 z "},"¤":{"ha":772,"x_min":null,"x_max":null,"o":"m 733 771 l 667 838 l 588 760 b 386 831 535 806 460 831 b 185 760 313 831 238 806 l 106 838 l 39 771 l 115 696 b 46 488 68 642 46 564 b 115 278 46 411 68 336 l 40 200 l 103 138 l 179 218 b 386 142 235 167 311 142 b 593 218 461 142 538 167 l 669 138 l 732 200 l 657 278 b 726 488 704 336 726 411 b 657 696 726 564 704 642 z m 625 488 b 386 239 625 354 519 239 b 147 488 253 239 147 354 b 386 733 147 618 254 733 b 625 488 518 733 625 618 z "},"¥":{"ha":772,"x_min":null,"x_max":null,"o":"m 757 985 l 639 985 l 390 538 l 133 985 l 15 985 l 300 492 l 90 492 l 90 421 l 329 421 l 329 314 l 90 314 l 90 243 l 329 243 l 329 0 l 451 0 l 451 243 l 688 243 l 688 314 l 451 314 l 451 421 l 688 421 l 688 492 l 478 492 z "},"¦":{"ha":361,"x_min":null,"x_max":null,"o":"m 228 490 l 228 1013 l 133 1013 l 133 490 z m 228 -294 l 228 228 l 133 228 l 133 -294 z "},"§":{"ha":772,"x_min":null,"x_max":null,"o":"m 703 318 b 551 550 703 418 664 478 l 349 681 b 269 788 290 718 269 747 b 393 906 269 856 322 906 b 528 764 475 906 528 850 l 528 728 l 644 728 l 644 767 b 401 1013 644 914 546 1013 b 144 783 257 1013 144 911 b 206 642 144 731 163 692 b 60 433 103 588 60 525 b 188 215 60 343 97 278 l 424 53 b 500 -69 478 15 500 -21 b 367 -189 500 -140 446 -189 b 225 -19 288 -189 225 -142 l 107 -19 b 365 -296 107 -194 200 -296 b 625 -62 514 -296 625 -196 b 551 101 625 -3 607 39 b 703 318 651 139 703 213 z m 593 289 b 492 147 593 233 557 182 l 261 318 b 169 456 188 372 169 400 b 268 596 169 511 196 549 l 492 444 b 593 289 560 397 593 344 z "},"¨":{"ha":463,"x_min":null,"x_max":null,"o":"m 182 839 l 182 981 l 56 981 l 56 839 z m 407 839 l 407 981 l 281 981 l 281 839 z "},"©":{"ha":1024,"x_min":null,"x_max":null,"o":"m 997 464 b 513 949 997 731 779 949 b 29 464 246 949 29 731 b 513 -19 29 197 246 -19 b 997 464 779 -19 997 197 z m 938 464 b 513 40 938 229 747 40 b 89 464 278 40 89 229 b 513 889 89 699 278 889 b 938 464 747 889 938 699 z m 776 396 l 688 396 b 525 246 669 293 624 246 b 336 458 410 246 336 326 b 518 682 336 594 407 682 b 675 561 611 682 658 644 l 764 561 b 528 754 742 688 664 754 b 250 457 343 754 250 619 b 525 174 250 296 346 174 b 776 396 675 174 758 247 z "},"ª":{"ha":514,"x_min":null,"x_max":null,"o":"m 444 421 l 444 492 l 60 492 l 60 421 z m 463 563 l 463 624 b 449 619 457 621 453 619 b 417 651 428 619 417 631 l 417 900 b 247 1031 417 988 360 1031 b 68 881 133 1031 71 979 l 150 881 b 244 958 160 940 182 958 b 338 897 304 958 338 936 l 338 879 b 269 833 338 849 322 838 b 51 688 106 821 51 782 b 196 554 51 606 107 554 b 342 614 250 554 296 574 b 418 554 350 571 372 554 b 463 563 435 554 444 556 z m 338 718 b 211 626 338 669 279 626 b 132 692 161 626 132 650 b 232 767 132 736 160 756 b 338 789 300 776 318 781 z "},"«":{"ha":772,"x_min":null,"x_max":null,"o":"m 347 147 l 347 263 l 200 378 l 347 493 l 347 608 l 136 439 l 136 315 z m 632 147 l 632 263 l 485 378 l 632 493 l 632 608 l 421 439 l 421 315 z "},"¬":{"ha":811,"x_min":null,"x_max":null,"o":"m 717 221 l 717 521 l 94 521 l 94 426 l 622 426 l 622 221 z "},"­":{"ha":463,"x_min":null,"x_max":null,"o":"m 394 333 l 394 433 l 64 433 l 64 333 z "},"®":{"ha":1024,"x_min":null,"x_max":null,"o":"m 997 464 b 513 949 997 731 779 949 b 29 464 246 949 29 731 b 513 -19 29 197 246 -19 b 997 464 779 -19 997 197 z m 938 464 b 513 40 938 229 747 40 b 89 464 278 40 89 229 b 513 889 89 699 278 889 b 938 464 747 889 938 699 z m 757 188 l 757 213 b 721 319 728 231 722 249 b 647 461 719 407 706 436 b 733 590 710 490 733 529 b 547 740 733 686 668 740 l 267 740 l 267 188 l 354 188 l 354 421 l 544 421 b 638 329 608 421 638 393 l 636 282 b 656 188 636 246 644 211 z m 644 581 b 532 493 644 519 610 493 l 354 493 l 354 668 l 532 668 b 644 581 613 668 644 638 z "},"¯":{"ha":463,"x_min":null,"x_max":null,"o":"m 419 861 l 419 958 l 39 958 l 39 861 z "},"°":{"ha":556,"x_min":null,"x_max":null,"o":"m 481 774 b 278 976 481 889 393 976 b 75 774 163 976 75 889 b 278 571 75 658 163 571 b 481 774 393 571 481 658 z m 414 774 b 278 631 414 700 351 631 b 142 774 204 631 142 700 b 278 917 142 847 204 917 b 414 774 351 917 414 847 z "},"±":{"ha":811,"x_min":null,"x_max":null,"o":"m 717 394 l 717 489 l 453 489 l 453 753 l 358 753 l 358 489 l 94 489 l 94 394 l 358 394 l 358 179 l 453 179 l 453 394 z m 717 0 l 717 94 l 94 94 l 94 0 z "},"²":{"ha":463,"x_min":null,"x_max":null,"o":"m 415 831 b 236 985 415 921 342 985 b 53 799 115 985 56 925 l 128 799 b 235 919 133 888 169 919 b 338 828 293 919 338 881 b 267 732 338 790 314 757 l 194 693 b 40 465 78 632 46 583 l 411 465 l 411 536 l 132 536 b 221 633 146 582 167 607 l 297 674 b 415 831 374 713 415 765 z "},"³":{"ha":463,"x_min":null,"x_max":null,"o":"m 421 613 b 335 735 421 674 393 714 b 404 838 379 754 404 790 b 235 985 404 928 339 985 b 58 811 121 985 61 926 l 135 811 b 235 919 135 890 167 919 b 328 836 292 919 328 888 b 193 763 328 779 297 763 l 193 700 b 344 613 294 700 344 688 b 235 513 344 550 303 513 b 124 622 161 513 126 546 l 47 622 b 232 449 47 511 114 449 b 421 613 347 449 421 513 z "},"´":{"ha":463,"x_min":null,"x_max":null,"o":"m 481 1013 l 324 1013 l 190 807 l 274 807 z "},"µ":{"ha":772,"x_min":null,"x_max":null,"o":"m 756 -19 l 756 68 b 731 65 742 65 736 65 b 668 122 690 65 668 85 l 668 728 l 553 728 l 553 315 b 354 69 553 167 475 69 b 206 213 264 69 206 125 l 206 728 l 90 728 l 90 -306 l 206 -306 l 206 4 b 331 -32 240 -21 281 -32 b 557 83 425 -32 503 7 b 676 -32 560 4 597 -32 b 756 -19 701 -32 719 -29 z "},"¶":{"ha":746,"x_min":null,"x_max":null,"o":"m 725 924 l 725 1013 l 378 1013 b 67 679 203 1013 67 867 b 354 360 67 511 169 369 l 354 -246 l 443 -246 l 443 924 l 557 924 l 557 -246 l 646 -246 l 646 924 z "},"·":{"ha":386,"x_min":null,"x_max":null,"o":"m 265 347 b 193 419 265 388 233 419 b 121 347 153 419 121 388 b 193 275 121 307 153 275 b 265 347 233 275 265 307 z "},"¸":{"ha":463,"x_min":null,"x_max":null,"o":"m 399 -190 b 289 -75 399 -131 358 -75 l 257 -75 l 289 7 l 222 7 l 164 -128 l 188 -144 b 231 -139 206 -140 214 -139 b 294 -200 271 -139 294 -168 b 219 -262 294 -236 263 -262 b 96 -222 183 -262 160 -254 l 83 -217 l 54 -272 b 228 -319 140 -310 174 -319 b 399 -190 333 -319 399 -269 z "},"¹":{"ha":463,"x_min":null,"x_max":null,"o":"m 293 465 l 293 985 l 242 985 b 115 885 221 908 203 890 l 97 883 l 97 826 l 218 826 l 218 465 z "},"º":{"ha":507,"x_min":null,"x_max":null,"o":"m 436 421 l 436 492 l 71 492 l 71 421 z m 450 789 b 253 1031 450 944 379 1031 b 56 793 128 1031 56 943 b 253 554 56 642 128 554 b 450 789 376 554 450 642 z m 369 790 b 253 626 369 689 325 626 b 136 793 181 626 136 689 b 253 958 136 896 181 958 b 369 790 326 958 369 896 z "},"»":{"ha":772,"x_min":null,"x_max":null,"o":"m 350 317 l 350 440 l 136 608 l 136 493 l 286 378 l 136 263 l 136 147 z m 626 317 l 626 440 l 413 608 l 413 493 l 563 378 l 413 263 l 413 147 z "},"¼":{"ha":1158,"x_min":null,"x_max":null,"o":"m 308 465 l 308 985 l 257 985 b 131 885 236 908 218 890 l 113 883 l 113 826 l 233 826 l 233 465 z m 946 985 l 865 985 l 238 -35 l 318 -35 z m 1065 122 l 1065 188 l 983 188 l 983 519 l 928 519 l 678 194 l 678 122 l 908 122 l 908 0 l 983 0 l 983 122 z m 908 188 l 750 188 l 908 394 z "},"½":{"ha":1158,"x_min":null,"x_max":null,"o":"m 308 465 l 308 985 l 257 985 b 131 885 236 908 218 890 l 113 883 l 113 826 l 233 826 l 233 465 z m 885 985 l 804 985 l 176 -35 l 257 -35 z m 1060 365 b 881 519 1060 456 986 519 b 696 333 760 519 700 460 l 772 333 b 878 454 778 422 814 454 b 982 363 938 454 982 415 b 910 267 982 325 958 292 l 839 229 b 685 0 722 167 690 118 l 1056 0 l 1056 71 l 776 71 b 865 168 790 117 811 142 l 942 208 b 1060 365 1018 247 1060 300 z "},"¾":{"ha":1158,"x_min":null,"x_max":null,"o":"m 463 613 b 376 735 463 674 435 714 b 446 838 421 754 446 790 b 276 985 446 928 381 985 b 100 811 163 985 103 926 l 176 811 b 276 919 176 890 208 919 b 369 836 333 919 369 888 b 235 763 369 779 339 763 l 235 700 b 386 613 336 700 386 688 b 276 513 386 550 344 513 b 165 622 203 513 168 546 l 89 622 b 274 449 89 511 156 449 b 463 613 389 449 463 513 z m 974 985 l 893 985 l 265 -35 l 346 -35 z m 1051 122 l 1051 188 l 969 188 l 969 519 l 914 519 l 664 194 l 664 122 l 894 122 l 894 0 l 969 0 l 969 122 z m 894 188 l 736 188 l 894 394 z "},"¿":{"ha":772,"x_min":null,"x_max":null,"o":"m 675 24 l 557 24 b 378 -193 557 -128 501 -193 b 200 -35 271 -193 200 -129 b 304 149 200 29 231 83 b 410 254 386 222 386 222 b 449 375 439 293 449 325 l 449 451 l 324 451 l 324 386 b 214 214 324 326 308 301 b 75 -35 110 119 75 57 b 371 -301 75 -197 190 -301 b 675 24 571 -301 675 -190 z m 449 583 l 449 728 l 324 728 l 324 583 z "},"À":{"ha":926,"x_min":null,"x_max":null,"o":"m 907 0 l 551 1013 l 385 1013 l 24 0 l 161 0 l 268 304 l 658 304 l 763 0 z m 622 413 l 300 413 l 467 874 z m 518 1088 l 358 1272 l 169 1272 l 418 1088 z "},"Á":{"ha":926,"x_min":null,"x_max":null,"o":"m 907 0 l 551 1013 l 385 1013 l 24 0 l 161 0 l 268 304 l 658 304 l 763 0 z m 622 413 l 300 413 l 467 874 z m 767 1272 l 578 1272 l 418 1088 l 518 1088 z "},"Â":{"ha":926,"x_min":null,"x_max":null,"o":"m 907 0 l 551 1013 l 385 1013 l 24 0 l 161 0 l 268 304 l 658 304 l 763 0 z m 622 413 l 300 413 l 467 874 z m 707 1088 l 547 1275 l 389 1275 l 229 1088 l 336 1088 l 468 1207 l 603 1088 z "},"Ã":{"ha":926,"x_min":null,"x_max":null,"o":"m 907 0 l 551 1013 l 385 1013 l 24 0 l 161 0 l 268 304 l 658 304 l 763 0 z m 622 413 l 300 413 l 467 874 z m 681 1253 l 600 1253 b 549 1201 589 1218 574 1201 b 461 1226 531 1201 496 1211 b 364 1253 403 1250 392 1253 b 244 1110 303 1253 260 1201 l 325 1110 b 371 1161 333 1142 350 1161 b 439 1143 386 1161 406 1156 b 557 1108 514 1114 531 1108 b 681 1253 625 1108 667 1157 z "},"Ä":{"ha":926,"x_min":null,"x_max":null,"o":"m 907 0 l 551 1013 l 385 1013 l 24 0 l 161 0 l 268 304 l 658 304 l 763 0 z m 622 413 l 300 413 l 467 874 z m 419 1110 l 419 1251 l 293 1251 l 293 1110 z m 644 1110 l 644 1251 l 518 1251 l 518 1110 z "},"Å":{"ha":926,"x_min":null,"x_max":null,"o":"m 907 0 l 551 1013 l 385 1013 l 24 0 l 161 0 l 268 304 l 658 304 l 763 0 z m 622 413 l 300 413 l 467 874 z m 603 1200 b 469 1335 603 1275 543 1335 b 335 1203 396 1335 335 1274 b 469 1068 335 1129 396 1068 b 603 1200 542 1068 603 1128 z m 536 1200 b 469 1135 536 1165 506 1135 b 401 1203 432 1135 401 1165 b 469 1268 401 1238 432 1268 b 536 1200 507 1268 536 1239 z "},"Æ":{"ha":1389,"x_min":null,"x_max":null,"o":"m 1319 0 l 1319 114 l 779 114 l 779 461 l 1268 461 l 1268 575 l 779 575 l 779 899 l 1294 899 l 1294 1013 l 431 1013 l 15 0 l 158 0 l 276 297 l 650 297 l 650 0 z m 650 411 l 319 411 l 511 899 l 650 899 z "},"Ç":{"ha":1003,"x_min":null,"x_max":null,"o":"m 940 369 l 807 369 b 525 89 776 178 696 89 b 196 496 324 89 196 243 b 514 924 196 756 318 924 b 788 699 672 924 756 853 l 919 699 b 529 1038 879 921 751 1038 b 67 494 222 1038 67 790 b 486 -24 67 211 213 -6 l 442 -128 l 465 -144 b 508 -139 483 -140 492 -139 b 572 -200 549 -139 572 -168 b 497 -262 572 -236 540 -262 b 374 -222 461 -262 438 -254 l 361 -217 l 332 -272 b 506 -319 418 -310 451 -319 b 676 -190 611 -319 676 -269 b 567 -75 676 -131 636 -75 l 535 -75 l 554 -24 b 940 369 782 -14 911 117 z "},"È":{"ha":926,"x_min":null,"x_max":null,"o":"m 851 0 l 851 114 l 254 114 l 254 461 l 806 461 l 806 575 l 254 575 l 254 899 l 826 899 l 826 1013 l 125 1013 l 125 0 z m 526 1088 l 367 1272 l 178 1272 l 426 1088 z "},"É":{"ha":926,"x_min":null,"x_max":null,"o":"m 851 0 l 851 114 l 254 114 l 254 461 l 806 461 l 806 575 l 254 575 l 254 899 l 826 899 l 826 1013 l 125 1013 l 125 0 z m 775 1272 l 586 1272 l 426 1088 l 526 1088 z "},"Ê":{"ha":926,"x_min":null,"x_max":null,"o":"m 851 0 l 851 114 l 254 114 l 254 461 l 806 461 l 806 575 l 254 575 l 254 899 l 826 899 l 826 1013 l 125 1013 l 125 0 z m 715 1088 l 556 1275 l 397 1275 l 238 1088 l 344 1088 l 476 1207 l 611 1088 z "},"Ë":{"ha":926,"x_min":null,"x_max":null,"o":"m 851 0 l 851 114 l 254 114 l 254 461 l 806 461 l 806 575 l 254 575 l 254 899 l 826 899 l 826 1013 l 125 1013 l 125 0 z m 428 1110 l 428 1251 l 301 1251 l 301 1110 z m 653 1110 l 653 1251 l 526 1251 l 526 1110 z "},"Ì":{"ha":386,"x_min":null,"x_max":null,"o":"m 268 0 l 268 1013 l 139 1013 l 139 0 z m 268 1088 l 108 1272 l -81 1272 l 168 1088 z "},"Í":{"ha":386,"x_min":null,"x_max":null,"o":"m 268 0 l 268 1013 l 139 1013 l 139 0 z m 489 1272 l 300 1272 l 140 1088 l 240 1088 z "},"Î":{"ha":386,"x_min":null,"x_max":null,"o":"m 268 0 l 268 1013 l 139 1013 l 139 0 z m 443 1088 l 283 1275 l 125 1275 l -35 1088 l 72 1088 l 204 1207 l 339 1088 z "},"Ï":{"ha":386,"x_min":null,"x_max":null,"o":"m 268 0 l 268 1013 l 139 1013 l 139 0 z m 156 1110 l 156 1251 l 29 1251 l 29 1110 z m 381 1110 l 381 1251 l 254 1251 l 254 1110 z "},"Ð":{"ha":1003,"x_min":null,"x_max":null,"o":"m 926 507 b 515 1013 926 821 771 1013 l 124 1013 l 124 564 l 28 564 l 28 471 l 124 471 l 124 0 l 515 0 b 926 507 771 0 926 192 z m 797 507 b 493 114 797 249 692 114 l 253 114 l 253 471 l 490 471 l 490 564 l 253 564 l 253 899 l 493 899 b 797 507 692 899 797 764 z "},"Ñ":{"ha":1003,"x_min":null,"x_max":null,"o":"m 897 0 l 897 1013 l 775 1013 l 775 185 l 246 1013 l 106 1013 l 106 0 l 228 0 l 228 821 l 751 0 z m 714 1253 l 633 1253 b 582 1201 622 1218 607 1201 b 494 1226 564 1201 529 1211 b 397 1253 436 1250 425 1253 b 278 1110 336 1253 293 1201 l 358 1110 b 404 1161 367 1142 383 1161 b 472 1143 419 1161 439 1156 b 590 1108 547 1114 564 1108 b 714 1253 658 1108 700 1157 z "},"Ò":{"ha":1081,"x_min":null,"x_max":null,"o":"m 1031 490 b 540 1038 1031 817 838 1038 b 53 499 250 1038 53 815 b 542 -25 53 182 250 -25 b 1031 490 839 -25 1031 193 z m 901 493 b 542 89 901 249 756 89 b 182 499 326 89 182 249 b 540 924 182 749 326 924 b 901 493 760 924 901 749 z m 590 1088 l 431 1272 l 242 1272 l 490 1088 z "},"Ó":{"ha":1081,"x_min":null,"x_max":null,"o":"m 1031 490 b 540 1038 1031 817 838 1038 b 53 499 250 1038 53 815 b 542 -25 53 182 250 -25 b 1031 490 839 -25 1031 193 z m 901 493 b 542 89 901 249 756 89 b 182 499 326 89 182 249 b 540 924 182 749 326 924 b 901 493 760 924 901 749 z m 839 1272 l 650 1272 l 490 1088 l 590 1088 z "},"Ô":{"ha":1081,"x_min":null,"x_max":null,"o":"m 1031 490 b 540 1038 1031 817 838 1038 b 53 499 250 1038 53 815 b 542 -25 53 182 250 -25 b 1031 490 839 -25 1031 193 z m 901 493 b 542 89 901 249 756 89 b 182 499 326 89 182 249 b 540 924 182 749 326 924 b 901 493 760 924 901 749 z m 779 1088 l 619 1275 l 461 1275 l 301 1088 l 408 1088 l 540 1207 l 675 1088 z "},"Õ":{"ha":1081,"x_min":null,"x_max":null,"o":"m 1031 490 b 540 1038 1031 817 838 1038 b 53 499 250 1038 53 815 b 542 -25 53 182 250 -25 b 1031 490 839 -25 1031 193 z m 901 493 b 542 89 901 249 756 89 b 182 499 326 89 182 249 b 540 924 182 749 326 924 b 901 493 760 924 901 749 z m 753 1253 l 672 1253 b 621 1201 661 1218 646 1201 b 533 1226 603 1201 568 1211 b 436 1253 475 1250 464 1253 b 317 1110 375 1253 332 1201 l 397 1110 b 443 1161 406 1142 422 1161 b 511 1143 458 1161 478 1156 b 629 1108 586 1114 603 1108 b 753 1253 697 1108 739 1157 z "},"Ö":{"ha":1081,"x_min":null,"x_max":null,"o":"m 1031 490 b 540 1038 1031 817 838 1038 b 53 499 250 1038 53 815 b 542 -25 53 182 250 -25 b 1031 490 839 -25 1031 193 z m 901 493 b 542 89 901 249 756 89 b 182 499 326 89 182 249 b 540 924 182 749 326 924 b 901 493 760 924 901 749 z m 492 1110 l 492 1251 l 365 1251 l 365 1110 z m 717 1110 l 717 1251 l 590 1251 l 590 1110 z "},"×":{"ha":811,"x_min":null,"x_max":null,"o":"m 658 161 l 472 347 l 658 533 l 592 600 l 406 414 l 219 600 l 153 533 l 339 347 l 153 161 l 219 94 l 406 281 l 592 94 z "},"Ø":{"ha":1081,"x_min":null,"x_max":null,"o":"m 1031 490 b 918 861 1031 639 990 767 l 1031 983 l 974 1035 l 867 917 b 540 1038 783 994 672 1038 b 53 499 250 1038 53 815 b 163 149 53 357 92 238 l 53 29 l 110 -22 l 214 92 b 542 -25 297 17 410 -25 b 1031 490 839 -25 1031 193 z m 901 493 b 542 89 901 249 756 89 b 297 183 443 89 358 122 l 831 765 b 901 493 876 694 901 600 z m 783 826 l 249 243 b 182 499 206 310 182 397 b 540 924 182 749 326 924 b 783 826 639 924 722 889 z "},"Ù":{"ha":1003,"x_min":null,"x_max":null,"o":"m 896 308 l 896 1013 l 767 1013 l 767 308 b 506 89 767 172 668 89 b 247 308 354 89 247 161 l 247 1013 l 118 1013 l 118 308 b 506 -25 118 103 265 -25 b 896 308 743 -25 896 106 z m 551 1088 l 392 1272 l 203 1272 l 451 1088 z "},"Ú":{"ha":1003,"x_min":null,"x_max":null,"o":"m 896 308 l 896 1013 l 767 1013 l 767 308 b 506 89 767 172 668 89 b 247 308 354 89 247 161 l 247 1013 l 118 1013 l 118 308 b 506 -25 118 103 265 -25 b 896 308 743 -25 896 106 z m 800 1272 l 611 1272 l 451 1088 l 551 1088 z "},"Û":{"ha":1003,"x_min":null,"x_max":null,"o":"m 896 308 l 896 1013 l 767 1013 l 767 308 b 506 89 767 172 668 89 b 247 308 354 89 247 161 l 247 1013 l 118 1013 l 118 308 b 506 -25 118 103 265 -25 b 896 308 743 -25 896 106 z m 740 1088 l 581 1275 l 422 1275 l 263 1088 l 369 1088 l 501 1207 l 636 1088 z "},"Ü":{"ha":1003,"x_min":null,"x_max":null,"o":"m 896 308 l 896 1013 l 767 1013 l 767 308 b 506 89 767 172 668 89 b 247 308 354 89 247 161 l 247 1013 l 118 1013 l 118 308 b 506 -25 118 103 265 -25 b 896 308 743 -25 896 106 z m 453 1110 l 453 1251 l 326 1251 l 326 1110 z m 678 1110 l 678 1251 l 551 1251 l 551 1110 z "},"Ý":{"ha":926,"x_min":null,"x_max":null,"o":"m 918 1013 l 764 1013 l 475 519 l 178 1013 l 18 1013 l 408 397 l 408 0 l 538 0 l 538 397 z m 772 1272 l 583 1272 l 424 1088 l 524 1088 z "},"Þ":{"ha":926,"x_min":null,"x_max":null,"o":"m 856 551 b 544 846 856 735 738 846 l 256 846 l 256 1013 l 126 1013 l 126 0 l 256 0 l 256 263 l 574 263 b 856 551 739 263 856 382 z m 717 554 b 525 376 717 443 646 376 l 256 376 l 256 732 l 525 732 b 717 554 646 732 717 665 z "},"ß":{"ha":849,"x_min":null,"x_max":null,"o":"m 786 304 b 592 557 786 422 707 526 b 729 757 675 589 729 668 b 404 1013 729 913 572 1013 b 97 747 242 1013 97 901 l 97 0 l 213 0 l 213 747 b 407 904 213 842 306 904 b 608 753 510 904 608 847 b 406 599 608 657 510 599 l 406 485 b 665 296 571 485 665 446 b 464 86 665 172 583 86 b 358 93 429 86 393 89 l 358 -22 b 475 -28 397 -26 436 -28 b 786 304 665 -28 786 100 z "},"à":{"ha":772,"x_min":null,"x_max":null,"o":"m 743 3 l 743 90 b 718 88 731 88 725 88 b 656 144 678 88 656 108 l 656 550 b 382 749 656 679 561 749 b 90 513 206 749 97 681 l 207 513 b 378 642 217 601 269 642 b 540 533 482 642 540 603 l 540 503 b 419 422 540 454 511 433 b 186 378 256 401 231 396 b 58 189 101 343 58 278 b 297 -21 58 57 150 -21 b 544 86 390 -21 481 18 b 664 -10 557 31 607 -10 b 743 3 688 -10 706 -7 z m 540 251 b 322 81 540 147 435 81 b 179 192 232 81 179 113 b 354 319 179 268 231 301 b 540 360 476 336 501 342 z m 424 807 l 290 1013 l 133 1013 l 340 807 z "},"á":{"ha":772,"x_min":null,"x_max":null,"o":"m 743 3 l 743 90 b 718 88 731 88 725 88 b 656 144 678 88 656 108 l 656 550 b 382 749 656 679 561 749 b 90 513 206 749 97 681 l 207 513 b 378 642 217 601 269 642 b 540 533 482 642 540 603 l 540 503 b 419 422 540 454 511 433 b 186 378 256 401 231 396 b 58 189 101 343 58 278 b 297 -21 58 57 150 -21 b 544 86 390 -21 481 18 b 664 -10 557 31 607 -10 b 743 3 688 -10 706 -7 z m 540 251 b 322 81 540 147 435 81 b 179 192 232 81 179 113 b 354 319 179 268 231 301 b 540 360 476 336 501 342 z m 631 1013 l 474 1013 l 340 807 l 424 807 z "},"â":{"ha":772,"x_min":null,"x_max":null,"o":"m 743 3 l 743 90 b 718 88 731 88 725 88 b 656 144 678 88 656 108 l 656 550 b 382 749 656 679 561 749 b 90 513 206 749 97 681 l 207 513 b 378 642 217 601 269 642 b 540 533 482 642 540 603 l 540 503 b 419 422 540 454 511 433 b 186 378 256 401 231 396 b 58 189 101 343 58 278 b 297 -21 58 57 150 -21 b 544 86 390 -21 481 18 b 664 -10 557 31 607 -10 b 743 3 688 -10 706 -7 z m 540 251 b 322 81 540 147 435 81 b 179 192 232 81 179 113 b 354 319 179 268 231 301 b 540 360 476 336 501 342 z m 581 806 l 447 1014 l 315 1014 l 182 806 l 271 806 l 381 939 l 493 806 z "},"ã":{"ha":772,"x_min":null,"x_max":null,"o":"m 743 3 l 743 90 b 718 88 731 88 725 88 b 656 144 678 88 656 108 l 656 550 b 382 749 656 679 561 749 b 90 513 206 749 97 681 l 207 513 b 378 642 217 601 269 642 b 540 533 482 642 540 603 l 540 503 b 419 422 540 454 511 433 b 186 378 256 401 231 396 b 58 189 101 343 58 278 b 297 -21 58 57 150 -21 b 544 86 390 -21 481 18 b 664 -10 557 31 607 -10 b 743 3 688 -10 706 -7 z m 540 251 b 322 81 540 147 435 81 b 179 192 232 81 179 113 b 354 319 179 268 231 301 b 540 360 476 336 501 342 z m 593 982 l 513 982 b 461 931 501 947 486 931 b 374 956 443 931 408 940 b 276 982 315 979 304 982 b 157 839 215 982 172 931 l 238 839 b 283 890 246 871 263 890 b 351 872 299 890 318 885 b 469 838 426 843 443 838 b 593 982 538 838 579 886 z "},"ä":{"ha":772,"x_min":null,"x_max":null,"o":"m 743 3 l 743 90 b 718 88 731 88 725 88 b 656 144 678 88 656 108 l 656 550 b 382 749 656 679 561 749 b 90 513 206 749 97 681 l 207 513 b 378 642 217 601 269 642 b 540 533 482 642 540 603 l 540 503 b 419 422 540 454 511 433 b 186 378 256 401 231 396 b 58 189 101 343 58 278 b 297 -21 58 57 150 -21 b 544 86 390 -21 481 18 b 664 -10 557 31 607 -10 b 743 3 688 -10 706 -7 z m 540 251 b 322 81 540 147 435 81 b 179 192 232 81 179 113 b 354 319 179 268 231 301 b 540 360 476 336 501 342 z m 332 839 l 332 981 l 206 981 l 206 839 z m 557 839 l 557 981 l 431 981 l 431 839 z "},"å":{"ha":772,"x_min":null,"x_max":null,"o":"m 743 3 l 743 90 b 718 88 731 88 725 88 b 656 144 678 88 656 108 l 656 550 b 382 749 656 679 561 749 b 90 513 206 749 97 681 l 207 513 b 378 642 217 601 269 642 b 540 533 482 642 540 603 l 540 503 b 419 422 540 454 511 433 b 186 378 256 401 231 396 b 58 189 101 343 58 278 b 297 -21 58 57 150 -21 b 544 86 390 -21 481 18 b 664 -10 557 31 607 -10 b 743 3 688 -10 706 -7 z m 540 251 b 322 81 540 147 435 81 b 179 192 232 81 179 113 b 354 319 179 268 231 301 b 540 360 476 336 501 342 z m 515 908 b 382 1043 515 983 456 1043 b 247 911 308 1043 247 982 b 382 776 247 838 308 776 b 515 908 454 776 515 836 z m 449 908 b 382 843 449 874 418 843 b 314 911 344 843 314 874 b 382 976 314 946 344 976 b 449 908 419 976 449 947 z "},"æ":{"ha":1235,"x_min":null,"x_max":null,"o":"m 1174 325 b 1144 557 1174 436 1165 503 b 851 749 1097 675 986 749 b 611 635 751 749 661 706 b 368 749 568 710 486 749 b 79 513 196 749 86 681 l 196 513 b 365 642 206 601 258 642 b 529 533 472 642 529 604 l 529 503 b 408 421 529 449 503 429 b 47 189 125 397 47 339 b 281 -21 47 58 139 -21 b 581 132 389 -21 476 24 l 603 94 b 850 -21 651 22 743 -21 b 1160 221 1014 -21 1131 74 l 1043 221 b 851 86 1010 136 944 86 b 638 325 731 86 640 169 z m 529 229 b 307 81 529 168 413 81 b 168 192 221 81 168 119 b 343 318 168 268 218 300 b 529 358 467 336 490 342 z m 1049 419 l 640 419 b 849 642 650 554 732 642 b 1049 419 967 642 1049 551 z "},"ç":{"ha":694,"x_min":null,"x_max":null,"o":"m 663 250 l 546 250 b 368 86 526 133 467 86 b 164 357 240 86 164 185 b 365 642 164 539 239 642 b 538 483 463 642 524 585 l 654 483 b 367 749 640 661 529 749 b 43 357 171 749 43 599 b 336 -19 43 135 156 -6 l 289 -128 l 313 -144 b 356 -139 331 -140 339 -139 b 419 -200 396 -139 419 -168 b 344 -262 419 -236 388 -262 b 221 -222 308 -262 285 -254 l 208 -217 l 179 -272 b 353 -319 265 -310 299 -319 b 524 -190 458 -319 524 -269 b 414 -75 524 -131 483 -75 l 382 -75 l 404 -19 b 663 250 556 -4 650 96 z "},"è":{"ha":772,"x_min":null,"x_max":null,"o":"m 713 331 b 683 557 713 436 704 503 b 389 749 636 676 525 749 b 56 360 186 749 56 599 b 386 -21 56 121 182 -21 b 697 221 553 -21 668 74 l 581 221 b 390 86 549 125 483 86 b 176 331 269 86 179 164 z m 589 433 b 588 425 589 433 589 428 l 179 425 b 388 642 189 554 271 642 b 589 433 501 642 589 547 z m 431 807 l 297 1013 l 140 1013 l 347 807 z "},"é":{"ha":772,"x_min":null,"x_max":null,"o":"m 713 331 b 683 557 713 436 704 503 b 389 749 636 676 525 749 b 56 360 186 749 56 599 b 386 -21 56 121 182 -21 b 697 221 553 -21 668 74 l 581 221 b 390 86 549 125 483 86 b 176 331 269 86 179 164 z m 589 433 b 588 425 589 433 589 428 l 179 425 b 388 642 189 554 271 642 b 589 433 501 642 589 547 z m 638 1013 l 481 1013 l 347 807 l 431 807 z "},"ê":{"ha":772,"x_min":null,"x_max":null,"o":"m 713 331 b 683 557 713 436 704 503 b 389 749 636 676 525 749 b 56 360 186 749 56 599 b 386 -21 56 121 182 -21 b 697 221 553 -21 668 74 l 581 221 b 390 86 549 125 483 86 b 176 331 269 86 179 164 z m 589 433 b 588 425 589 433 589 428 l 179 425 b 388 642 189 554 271 642 b 589 433 501 642 589 547 z m 588 806 l 454 1014 l 322 1014 l 189 806 l 278 806 l 388 939 l 500 806 z "},"ë":{"ha":772,"x_min":null,"x_max":null,"o":"m 713 331 b 683 557 713 436 704 503 b 389 749 636 676 525 749 b 56 360 186 749 56 599 b 386 -21 56 121 182 -21 b 697 221 553 -21 668 74 l 581 221 b 390 86 549 125 483 86 b 176 331 269 86 179 164 z m 589 433 b 588 425 589 433 589 428 l 179 425 b 388 642 189 554 271 642 b 589 433 501 642 589 547 z m 339 839 l 339 981 l 213 981 l 213 839 z m 564 839 l 564 981 l 438 981 l 438 839 z "},"ì":{"ha":386,"x_min":null,"x_max":null,"o":"m 251 0 l 251 728 l 136 728 l 136 0 z m 251 807 l 118 1013 l -39 1013 l 168 807 z "},"í":{"ha":386,"x_min":null,"x_max":null,"o":"m 251 0 l 251 728 l 136 728 l 136 0 z m 428 1013 l 271 1013 l 138 807 l 221 807 z "},"î":{"ha":386,"x_min":null,"x_max":null,"o":"m 251 0 l 251 728 l 136 728 l 136 0 z m 393 806 l 260 1014 l 128 1014 l -6 806 l 83 806 l 193 939 l 306 806 z "},"ï":{"ha":386,"x_min":null,"x_max":null,"o":"m 251 0 l 251 728 l 136 728 l 136 0 z m 144 839 l 144 981 l 18 981 l 18 839 z m 369 839 l 369 981 l 243 981 l 243 839 z "},"ð":{"ha":772,"x_min":null,"x_max":null,"o":"m 708 365 b 404 899 708 568 624 731 l 529 956 l 474 1007 l 339 944 b 185 1032 246 1004 228 1014 l 124 971 b 238 899 183 938 201 926 l 119 843 l 169 789 l 304 851 b 440 728 376 790 392 776 b 353 746 399 742 379 746 b 50 364 169 746 50 603 b 379 -21 50 115 169 -21 b 708 365 589 -21 708 115 z m 588 360 b 379 86 588 189 507 86 b 171 364 250 86 171 189 b 379 642 171 539 250 642 b 588 360 510 642 588 540 z "},"ñ":{"ha":772,"x_min":null,"x_max":null,"o":"m 676 0 l 676 550 b 446 749 676 671 586 749 b 204 606 338 749 268 707 l 204 728 l 97 728 l 97 0 l 213 0 l 213 401 b 411 647 213 550 293 647 b 561 504 503 647 561 592 l 561 0 z m 597 982 l 517 982 b 465 931 506 947 490 931 b 378 956 447 931 413 940 b 281 982 319 979 308 982 b 161 839 219 982 176 931 l 242 839 b 288 890 250 871 267 890 b 356 872 303 890 322 885 b 474 838 431 843 447 838 b 597 982 542 838 583 886 z "},"ò":{"ha":772,"x_min":null,"x_max":null,"o":"m 708 358 b 378 749 708 610 588 749 b 50 364 174 749 50 608 b 379 -21 50 119 172 -21 b 708 358 583 -21 708 119 z m 588 360 b 379 86 588 189 507 86 b 171 364 250 86 171 188 b 379 642 171 539 250 642 b 588 360 510 642 588 540 z m 428 807 l 294 1013 l 138 1013 l 344 807 z "},"ó":{"ha":772,"x_min":null,"x_max":null,"o":"m 708 358 b 378 749 708 610 588 749 b 50 364 174 749 50 608 b 379 -21 50 119 172 -21 b 708 358 583 -21 708 119 z m 588 360 b 379 86 588 189 507 86 b 171 364 250 86 171 188 b 379 642 171 539 250 642 b 588 360 510 642 588 540 z m 635 1013 l 478 1013 l 344 807 l 428 807 z "},"ô":{"ha":772,"x_min":null,"x_max":null,"o":"m 708 358 b 378 749 708 610 588 749 b 50 364 174 749 50 608 b 379 -21 50 119 172 -21 b 708 358 583 -21 708 119 z m 588 360 b 379 86 588 189 507 86 b 171 364 250 86 171 188 b 379 642 171 539 250 642 b 588 360 510 642 588 540 z m 585 806 l 451 1014 l 319 1014 l 186 806 l 275 806 l 385 939 l 497 806 z "},"õ":{"ha":772,"x_min":null,"x_max":null,"o":"m 708 358 b 378 749 708 610 588 749 b 50 364 174 749 50 608 b 379 -21 50 119 172 -21 b 708 358 583 -21 708 119 z m 588 360 b 379 86 588 189 507 86 b 171 364 250 86 171 188 b 379 642 171 539 250 642 b 588 360 510 642 588 540 z m 597 982 l 517 982 b 465 931 506 947 490 931 b 378 956 447 931 413 940 b 281 982 319 979 308 982 b 161 839 219 982 176 931 l 242 839 b 288 890 250 871 267 890 b 356 872 303 890 322 885 b 474 838 431 843 447 838 b 597 982 542 838 583 886 z "},"ö":{"ha":772,"x_min":null,"x_max":null,"o":"m 708 358 b 378 749 708 610 588 749 b 50 364 174 749 50 608 b 379 -21 50 119 172 -21 b 708 358 583 -21 708 119 z m 588 360 b 379 86 588 189 507 86 b 171 364 250 86 171 188 b 379 642 171 539 250 642 b 588 360 510 642 588 540 z m 336 839 l 336 981 l 210 981 l 210 839 z m 561 839 l 561 981 l 435 981 l 435 839 z "},"÷":{"ha":811,"x_min":null,"x_max":null,"o":"m 717 300 l 717 394 l 94 394 l 94 300 z m 478 600 b 406 672 478 640 446 672 b 333 600 365 672 333 640 b 406 528 333 561 365 528 b 478 600 446 528 478 561 z m 478 94 b 406 167 478 133 446 167 b 333 94 365 167 333 133 b 406 22 333 54 365 22 b 478 94 446 22 478 54 z "},"ø":{"ha":772,"x_min":null,"x_max":null,"o":"m 708 358 b 642 622 708 468 685 557 l 706 699 l 654 742 l 596 674 b 378 749 542 724 468 749 b 50 364 174 749 50 608 b 117 106 50 257 74 171 l 53 29 l 104 -14 l 163 54 b 379 -21 217 6 290 -21 b 708 358 583 -21 708 119 z m 588 360 b 379 86 588 189 507 86 b 239 144 321 86 274 107 l 558 524 b 588 360 578 479 588 425 z m 519 583 l 200 204 b 171 364 181 247 171 301 b 379 642 171 539 250 642 b 519 583 438 642 485 622 z "},"ù":{"ha":772,"x_min":null,"x_max":null,"o":"m 669 0 l 669 728 l 554 728 l 554 326 b 356 81 554 178 476 81 b 206 224 264 81 206 136 l 206 728 l 90 728 l 90 178 b 322 -21 90 57 181 -21 b 565 113 429 -21 497 17 l 565 0 z m 428 807 l 294 1013 l 138 1013 l 344 807 z "},"ú":{"ha":772,"x_min":null,"x_max":null,"o":"m 669 0 l 669 728 l 554 728 l 554 326 b 356 81 554 178 476 81 b 206 224 264 81 206 136 l 206 728 l 90 728 l 90 178 b 322 -21 90 57 181 -21 b 565 113 429 -21 497 17 l 565 0 z m 635 1013 l 478 1013 l 344 807 l 428 807 z "},"û":{"ha":772,"x_min":null,"x_max":null,"o":"m 669 0 l 669 728 l 554 728 l 554 326 b 356 81 554 178 476 81 b 206 224 264 81 206 136 l 206 728 l 90 728 l 90 178 b 322 -21 90 57 181 -21 b 565 113 429 -21 497 17 l 565 0 z m 585 806 l 451 1014 l 319 1014 l 186 806 l 275 806 l 385 939 l 497 806 z "},"ü":{"ha":772,"x_min":null,"x_max":null,"o":"m 669 0 l 669 728 l 554 728 l 554 326 b 356 81 554 178 476 81 b 206 224 264 81 206 136 l 206 728 l 90 728 l 90 178 b 322 -21 90 57 181 -21 b 565 113 429 -21 497 17 l 565 0 z m 336 839 l 336 981 l 210 981 l 210 839 z m 561 839 l 561 981 l 435 981 l 435 839 z "},"ý":{"ha":694,"x_min":null,"x_max":null,"o":"m 664 728 l 539 728 l 338 161 l 151 728 l 28 728 l 274 -3 l 229 -118 b 136 -189 210 -169 186 -189 b 75 -181 119 -189 100 -186 l 75 -285 b 153 -303 99 -297 122 -303 b 340 -153 235 -303 301 -257 z m 596 1013 l 439 1013 l 306 807 l 389 807 z "},"þ":{"ha":772,"x_min":null,"x_max":null,"o":"m 725 351 b 414 749 725 593 603 749 b 190 638 321 749 240 708 l 190 992 l 75 992 l 75 -303 l 190 -303 l 190 88 b 414 -21 251 13 319 -21 b 725 351 601 -21 725 131 z m 604 354 b 393 88 604 200 519 88 b 190 358 271 88 190 199 b 393 640 190 529 271 640 b 604 354 521 640 604 528 z "},"ÿ":{"ha":694,"x_min":null,"x_max":null,"o":"m 664 728 l 539 728 l 338 161 l 151 728 l 28 728 l 274 -3 l 229 -118 b 136 -189 210 -169 186 -189 b 75 -181 119 -189 100 -186 l 75 -285 b 153 -303 99 -297 122 -303 b 340 -153 235 -303 301 -257 z m 297 839 l 297 981 l 171 981 l 171 839 z m 522 839 l 522 981 l 396 981 l 396 839 z "},"Ā":{"ha":926,"x_min":null,"x_max":null,"o":"m 907 0 l 551 1013 l 385 1013 l 24 0 l 161 0 l 268 304 l 658 304 l 763 0 z m 622 413 l 300 413 l 467 874 z m 657 1132 l 657 1229 l 276 1229 l 276 1132 z "},"ā":{"ha":772,"x_min":null,"x_max":null,"o":"m 743 3 l 743 90 b 718 88 731 88 725 88 b 656 144 678 88 656 108 l 656 550 b 382 749 656 679 561 749 b 90 513 206 749 97 681 l 207 513 b 378 642 217 601 269 642 b 540 533 482 642 540 603 l 540 503 b 419 422 540 454 511 433 b 186 378 256 401 231 396 b 58 189 101 343 58 278 b 297 -21 58 57 150 -21 b 544 86 390 -21 481 18 b 664 -10 557 31 607 -10 b 743 3 688 -10 706 -7 z m 540 251 b 322 81 540 147 435 81 b 179 192 232 81 179 113 b 354 319 179 268 231 301 b 540 360 476 336 501 342 z m 569 861 l 569 958 l 189 958 l 189 861 z "},"Ă":{"ha":926,"x_min":null,"x_max":null,"o":"m 907 0 l 551 1013 l 385 1013 l 24 0 l 161 0 l 268 304 l 658 304 l 763 0 z m 622 413 l 300 413 l 467 874 z m 718 1265 l 619 1265 b 468 1196 614 1213 558 1196 b 315 1265 374 1196 324 1210 l 217 1265 b 465 1096 219 1144 325 1096 b 718 1265 619 1096 707 1154 z "},"ă":{"ha":772,"x_min":null,"x_max":null,"o":"m 743 3 l 743 90 b 718 88 731 88 725 88 b 656 144 678 88 656 108 l 656 550 b 382 749 656 679 561 749 b 90 513 206 749 97 681 l 207 513 b 378 642 217 601 269 642 b 540 533 482 642 540 603 l 540 503 b 419 422 540 454 511 433 b 186 378 256 401 231 396 b 58 189 101 343 58 278 b 297 -21 58 57 150 -21 b 544 86 390 -21 481 18 b 664 -10 557 31 607 -10 b 743 3 688 -10 706 -7 z m 540 251 b 322 81 540 147 435 81 b 179 192 232 81 179 113 b 354 319 179 268 231 301 b 540 360 476 336 501 342 z m 589 1004 l 514 1004 b 378 913 492 949 438 913 b 242 1004 318 913 264 949 l 167 1004 b 378 817 167 896 265 817 b 589 1004 490 817 589 896 z "},"Ą":{"ha":926,"x_min":null,"x_max":null,"o":"m 907 -319 l 907 -211 l 838 -211 b 776 -150 799 -211 776 -190 b 799 -68 776 -117 783 -90 b 907 0 824 -29 861 0 l 551 1013 l 385 1013 l 24 0 l 161 0 l 268 304 l 658 304 l 763 0 b 696 -86 738 -26 715 -54 b 668 -185 678 -115 668 -147 b 838 -319 668 -274 753 -319 z m 622 413 l 300 413 l 467 874 z "},"ą":{"ha":772,"x_min":null,"x_max":null,"o":"m 743 -319 l 743 -211 l 674 -211 b 613 -150 635 -211 613 -190 b 718 -3 613 -82 653 -18 l 743 3 l 743 90 b 718 88 731 88 725 88 b 656 144 678 88 656 108 l 656 550 b 382 749 656 679 561 749 b 90 513 206 749 97 681 l 207 513 b 378 642 217 601 269 642 b 540 533 482 642 540 603 l 540 503 b 419 422 540 454 511 433 b 186 378 256 401 231 396 b 58 189 101 343 58 278 b 297 -21 58 57 150 -21 b 544 86 390 -21 481 18 b 615 0 553 47 579 15 b 504 -185 542 -56 504 -111 b 674 -319 504 -274 589 -319 z m 540 251 b 322 81 540 147 435 81 b 179 192 232 81 179 113 b 354 319 179 268 231 301 b 540 360 476 336 501 342 z "},"Ć":{"ha":1003,"x_min":null,"x_max":null,"o":"m 940 369 l 807 369 b 525 89 776 178 696 89 b 196 496 324 89 196 243 b 514 924 196 756 318 924 b 788 699 672 924 756 853 l 919 699 b 529 1038 879 921 751 1038 b 67 494 222 1038 67 790 b 524 -25 67 199 226 -25 b 940 369 771 -25 910 106 z m 813 1272 l 624 1272 l 464 1088 l 564 1088 z "},"ć":{"ha":694,"x_min":null,"x_max":null,"o":"m 663 250 l 546 250 b 368 86 526 133 467 86 b 164 357 240 86 164 185 b 365 642 164 539 239 642 b 538 483 463 642 524 585 l 654 483 b 367 749 640 661 529 749 b 43 357 171 749 43 599 b 365 -21 43 122 168 -21 b 663 250 539 -21 649 83 z m 615 1013 l 458 1013 l 325 807 l 408 807 z "},"Ĉ":{"ha":1003,"x_min":null,"x_max":null,"o":"m 940 369 l 807 369 b 525 89 776 178 696 89 b 196 496 324 89 196 243 b 514 924 196 756 318 924 b 788 699 672 924 756 853 l 919 699 b 529 1038 879 921 751 1038 b 67 494 222 1038 67 790 b 524 -25 67 199 226 -25 b 940 369 771 -25 910 106 z m 753 1088 l 593 1275 l 435 1275 l 275 1088 l 382 1088 l 514 1207 l 649 1088 z "},"ĉ":{"ha":694,"x_min":null,"x_max":null,"o":"m 663 250 l 546 250 b 368 86 526 133 467 86 b 164 357 240 86 164 185 b 365 642 164 539 239 642 b 538 483 463 642 524 585 l 654 483 b 367 749 640 661 529 749 b 43 357 171 749 43 599 b 365 -21 43 122 168 -21 b 663 250 539 -21 649 83 z m 565 806 l 432 1014 l 300 1014 l 167 806 l 256 806 l 365 939 l 478 806 z "},"Ċ":{"ha":1003,"x_min":null,"x_max":null,"o":"m 940 369 l 807 369 b 525 89 776 178 696 89 b 196 496 324 89 196 243 b 514 924 196 756 318 924 b 788 699 672 924 756 853 l 919 699 b 529 1038 879 921 751 1038 b 67 494 222 1038 67 790 b 524 -25 67 199 226 -25 b 940 369 771 -25 910 106 z m 588 1108 l 588 1253 l 443 1253 l 443 1108 z "},"ċ":{"ha":694,"x_min":null,"x_max":null,"o":"m 663 250 l 546 250 b 368 86 526 133 467 86 b 164 357 240 86 164 185 b 365 642 164 539 239 642 b 538 483 463 642 524 585 l 654 483 b 367 749 640 661 529 749 b 43 357 171 749 43 599 b 365 -21 43 122 168 -21 b 663 250 539 -21 649 83 z m 439 838 l 439 982 l 294 982 l 294 838 z "},"Č":{"ha":1003,"x_min":null,"x_max":null,"o":"m 940 369 l 807 369 b 525 89 776 178 696 89 b 196 496 324 89 196 243 b 514 924 196 756 318 924 b 788 699 672 924 756 853 l 919 699 b 529 1038 879 921 751 1038 b 67 494 222 1038 67 790 b 524 -25 67 199 226 -25 b 940 369 771 -25 910 106 z m 754 1275 l 647 1275 l 515 1156 l 381 1275 l 276 1275 l 436 1088 l 594 1088 z "},"č":{"ha":694,"x_min":null,"x_max":null,"o":"m 663 250 l 546 250 b 368 86 526 133 467 86 b 164 357 240 86 164 185 b 365 642 164 539 239 642 b 538 483 463 642 524 585 l 654 483 b 367 749 640 661 529 749 b 43 357 171 749 43 599 b 365 -21 43 122 168 -21 b 663 250 539 -21 649 83 z m 565 1014 l 476 1014 l 367 881 l 254 1014 l 167 1014 l 300 806 l 432 806 z "},"Ď":{"ha":1003,"x_min":null,"x_max":null,"o":"m 926 507 b 514 1013 926 821 771 1013 l 124 1013 l 124 0 l 514 0 b 926 507 769 0 926 192 z m 797 506 b 492 114 797 250 692 114 l 253 114 l 253 899 l 492 899 b 797 506 692 899 797 764 z m 732 1275 l 625 1275 l 493 1156 l 358 1275 l 254 1275 l 414 1088 l 572 1088 z "},"ď":{"ha":772,"x_min":null,"x_max":null,"o":"m 688 0 l 688 1013 l 572 1013 l 572 636 b 349 749 524 710 446 749 b 36 371 160 749 36 603 b 353 -21 36 125 157 -21 b 585 107 453 -21 522 17 l 585 0 z m 572 361 b 369 88 572 193 492 88 b 157 364 242 88 157 194 b 368 640 157 533 242 640 b 572 361 493 640 572 529 z m 921 869 l 921 1013 l 782 1013 l 782 874 l 858 874 l 858 863 b 782 754 858 793 832 754 l 782 701 b 921 869 868 701 921 764 z "},"Đ":{"ha":1003,"x_min":null,"x_max":null,"o":"m 926 507 b 515 1013 926 821 771 1013 l 124 1013 l 124 564 l 28 564 l 28 471 l 124 471 l 124 0 l 515 0 b 926 507 771 0 926 192 z m 797 507 b 493 114 797 249 692 114 l 253 114 l 253 471 l 490 471 l 490 564 l 253 564 l 253 899 l 493 899 b 797 507 692 899 797 764 z "},"đ":{"ha":772,"x_min":null,"x_max":null,"o":"m 774 833 l 774 907 l 686 907 l 686 1013 l 571 1013 l 571 907 l 363 907 l 363 833 l 571 833 l 571 640 b 347 749 510 715 442 749 b 36 372 160 749 36 603 b 350 -21 36 132 161 -21 b 583 93 443 -21 517 15 l 583 0 l 686 0 l 686 833 z m 571 361 b 368 93 571 196 490 93 b 157 364 242 93 157 199 b 368 635 157 529 242 635 b 571 361 492 635 571 532 z "},"Ē":{"ha":926,"x_min":null,"x_max":null,"o":"m 851 0 l 851 114 l 254 114 l 254 461 l 806 461 l 806 575 l 254 575 l 254 899 l 826 899 l 826 1013 l 125 1013 l 125 0 z m 665 1132 l 665 1229 l 285 1229 l 285 1132 z "},"ē":{"ha":772,"x_min":null,"x_max":null,"o":"m 713 331 b 683 557 713 436 704 503 b 389 749 636 676 525 749 b 56 360 186 749 56 599 b 386 -21 56 121 182 -21 b 697 221 553 -21 668 74 l 581 221 b 390 86 549 125 483 86 b 176 331 269 86 179 164 z m 589 433 b 588 425 589 433 589 428 l 179 425 b 388 642 189 554 271 642 b 589 433 501 642 589 547 z m 576 861 l 576 958 l 196 958 l 196 861 z "},"Ĕ":{"ha":926,"x_min":null,"x_max":null,"o":"m 851 0 l 851 114 l 254 114 l 254 461 l 806 461 l 806 575 l 254 575 l 254 899 l 826 899 l 826 1013 l 125 1013 l 125 0 z m 726 1265 l 628 1265 b 476 1196 622 1213 567 1196 b 324 1265 382 1196 332 1210 l 225 1265 b 474 1096 228 1144 333 1096 b 726 1265 628 1096 715 1154 z "},"ĕ":{"ha":772,"x_min":null,"x_max":null,"o":"m 713 331 b 683 557 713 436 704 503 b 389 749 636 676 525 749 b 56 360 186 749 56 599 b 386 -21 56 121 182 -21 b 697 221 553 -21 668 74 l 581 221 b 390 86 549 125 483 86 b 176 331 269 86 179 164 z m 589 433 b 588 425 589 433 589 428 l 179 425 b 388 642 189 554 271 642 b 589 433 501 642 589 547 z m 596 1004 l 521 1004 b 385 913 499 949 444 913 b 249 1004 325 913 271 949 l 174 1004 b 385 817 174 896 272 817 b 596 1004 497 817 596 896 z "},"Ė":{"ha":926,"x_min":null,"x_max":null,"o":"m 851 0 l 851 114 l 254 114 l 254 461 l 806 461 l 806 575 l 254 575 l 254 899 l 826 899 l 826 1013 l 125 1013 l 125 0 z m 550 1108 l 550 1253 l 406 1253 l 406 1108 z "},"ė":{"ha":772,"x_min":null,"x_max":null,"o":"m 713 331 b 683 557 713 436 704 503 b 389 749 636 676 525 749 b 56 360 186 749 56 599 b 386 -21 56 121 182 -21 b 697 221 553 -21 668 74 l 581 221 b 390 86 549 125 483 86 b 176 331 269 86 179 164 z m 589 433 b 588 425 589 433 589 428 l 179 425 b 388 642 189 554 271 642 b 589 433 501 642 589 547 z m 461 838 l 461 982 l 317 982 l 317 838 z "},"Ę":{"ha":926,"x_min":null,"x_max":null,"o":"m 851 -319 l 851 -211 l 782 -211 b 721 -150 743 -211 721 -190 b 743 -68 721 -117 728 -90 b 851 0 768 -29 806 0 l 851 114 l 254 114 l 254 461 l 806 461 l 806 575 l 254 575 l 254 899 l 826 899 l 826 1013 l 125 1013 l 125 0 l 722 0 b 613 -185 650 -56 613 -111 b 782 -319 613 -274 697 -319 z "},"ę":{"ha":772,"x_min":null,"x_max":null,"o":"m 713 331 b 683 557 713 436 704 503 b 389 749 636 676 525 749 b 56 360 186 749 56 599 b 386 -21 56 121 182 -21 l 389 -21 b 304 -185 333 -69 304 -121 b 474 -319 304 -274 389 -319 l 543 -319 l 543 -211 l 474 -211 b 413 -150 435 -211 413 -190 b 540 13 413 -76 472 -21 b 697 221 624 51 678 125 l 581 221 b 390 86 549 125 483 86 b 176 331 269 86 179 164 z m 589 433 b 588 425 589 433 589 428 l 179 425 b 388 642 189 554 271 642 b 589 433 501 642 589 547 z "},"Ě":{"ha":926,"x_min":null,"x_max":null,"o":"m 851 0 l 851 114 l 254 114 l 254 461 l 806 461 l 806 575 l 254 575 l 254 899 l 826 899 l 826 1013 l 125 1013 l 125 0 z m 717 1275 l 610 1275 l 478 1156 l 343 1275 l 239 1275 l 399 1088 l 557 1088 z "},"ě":{"ha":772,"x_min":null,"x_max":null,"o":"m 713 331 b 683 557 713 436 704 503 b 389 749 636 676 525 749 b 56 360 186 749 56 599 b 386 -21 56 121 182 -21 b 697 221 553 -21 668 74 l 581 221 b 390 86 549 125 483 86 b 176 331 269 86 179 164 z m 589 433 b 588 425 589 433 589 428 l 179 425 b 388 642 189 554 271 642 b 589 433 501 642 589 547 z m 588 1014 l 499 1014 l 389 881 l 276 1014 l 189 1014 l 322 806 l 454 806 z "},"Ĝ":{"ha":1081,"x_min":null,"x_max":null,"o":"m 985 0 l 985 535 l 563 535 l 563 421 l 871 421 l 871 393 b 553 89 871 213 738 89 b 190 503 324 89 190 256 b 546 924 190 751 332 924 b 839 706 700 924 811 836 l 971 706 b 547 1038 935 911 779 1038 b 61 496 238 1038 61 799 b 525 -25 61 185 251 -25 b 871 133 663 -25 772 24 l 903 0 z m 786 1088 l 626 1275 l 468 1275 l 308 1088 l 415 1088 l 547 1207 l 682 1088 z "},"ĝ":{"ha":772,"x_min":null,"x_max":null,"o":"m 679 119 l 679 728 l 572 728 l 572 622 b 350 749 514 708 443 749 b 40 357 165 749 40 593 b 340 -21 40 128 169 -21 b 572 110 432 -21 496 18 l 572 61 b 358 -206 572 -132 493 -206 b 182 -83 267 -206 196 -172 l 64 -83 b 354 -303 76 -221 183 -303 b 679 119 582 -303 679 -201 z m 561 360 b 364 86 561 186 486 86 b 161 364 238 86 161 188 b 363 642 161 539 239 642 b 561 360 488 642 561 536 z m 585 806 l 451 1014 l 319 1014 l 186 806 l 275 806 l 385 939 l 497 806 z "},"Ğ":{"ha":1081,"x_min":null,"x_max":null,"o":"m 985 0 l 985 535 l 563 535 l 563 421 l 871 421 l 871 393 b 553 89 871 213 738 89 b 190 503 324 89 190 256 b 546 924 190 751 332 924 b 839 706 700 924 811 836 l 971 706 b 547 1038 935 911 779 1038 b 61 496 238 1038 61 799 b 525 -25 61 185 251 -25 b 871 133 663 -25 772 24 l 903 0 z m 797 1265 l 699 1265 b 547 1196 693 1213 638 1196 b 394 1265 453 1196 403 1210 l 296 1265 b 544 1096 299 1144 404 1096 b 797 1265 699 1096 786 1154 z "},"ğ":{"ha":772,"x_min":null,"x_max":null,"o":"m 679 119 l 679 728 l 572 728 l 572 622 b 350 749 514 708 443 749 b 40 357 165 749 40 593 b 340 -21 40 128 169 -21 b 572 110 432 -21 496 18 l 572 61 b 358 -206 572 -132 493 -206 b 182 -83 267 -206 196 -172 l 64 -83 b 354 -303 76 -221 183 -303 b 679 119 582 -303 679 -201 z m 561 360 b 364 86 561 186 486 86 b 161 364 238 86 161 188 b 363 642 161 539 239 642 b 561 360 488 642 561 536 z m 593 1004 l 518 1004 b 382 913 496 949 442 913 b 246 1004 322 913 268 949 l 171 1004 b 382 817 171 896 269 817 b 593 1004 494 817 593 896 z "},"Ġ":{"ha":1081,"x_min":null,"x_max":null,"o":"m 985 0 l 985 535 l 563 535 l 563 421 l 871 421 l 871 393 b 553 89 871 213 738 89 b 190 503 324 89 190 256 b 546 924 190 751 332 924 b 839 706 700 924 811 836 l 971 706 b 547 1038 935 911 779 1038 b 61 496 238 1038 61 799 b 525 -25 61 185 251 -25 b 871 133 663 -25 772 24 l 903 0 z m 621 1108 l 621 1253 l 476 1253 l 476 1108 z "},"ġ":{"ha":772,"x_min":null,"x_max":null,"o":"m 679 119 l 679 728 l 572 728 l 572 622 b 350 749 514 708 443 749 b 40 357 165 749 40 593 b 340 -21 40 128 169 -21 b 572 110 432 -21 496 18 l 572 61 b 358 -206 572 -132 493 -206 b 182 -83 267 -206 196 -172 l 64 -83 b 354 -303 76 -221 183 -303 b 679 119 582 -303 679 -201 z m 561 360 b 364 86 561 186 486 86 b 161 364 238 86 161 188 b 363 642 161 539 239 642 b 561 360 488 642 561 536 z m 458 838 l 458 982 l 314 982 l 314 838 z "},"Ģ":{"ha":1081,"x_min":null,"x_max":null,"o":"m 985 0 l 985 535 l 563 535 l 563 421 l 871 421 l 871 393 b 553 89 871 213 738 89 b 190 503 324 89 190 256 b 546 924 190 751 332 924 b 839 706 700 924 811 836 l 971 706 b 547 1038 935 911 779 1038 b 61 496 238 1038 61 799 b 525 -25 61 185 251 -25 b 871 133 663 -25 772 24 l 903 0 z m 618 -226 l 618 -83 l 479 -83 l 479 -222 l 556 -222 l 556 -233 b 479 -342 556 -303 529 -342 l 479 -394 b 618 -226 565 -394 618 -332 z "},"ģ":{"ha":772,"x_min":null,"x_max":null,"o":"m 457 804 l 457 943 l 381 943 l 381 954 b 457 1063 381 1024 407 1063 l 457 1115 b 318 947 371 1115 318 1053 l 318 804 z m 679 119 l 679 728 l 572 728 l 572 622 b 350 749 514 708 443 749 b 40 357 165 749 40 593 b 340 -21 40 128 169 -21 b 572 110 432 -21 496 18 l 572 61 b 358 -206 572 -132 493 -206 b 182 -83 267 -206 196 -172 l 64 -83 b 354 -303 76 -221 183 -303 b 679 119 582 -303 679 -201 z m 561 360 b 364 86 561 186 486 86 b 161 364 238 86 161 188 b 363 642 161 539 239 642 b 561 360 488 642 561 536 z "},"Ĥ":{"ha":1003,"x_min":null,"x_max":null,"o":"m 894 0 l 894 1013 l 765 1013 l 765 575 l 244 575 l 244 1013 l 115 1013 l 115 0 l 244 0 l 244 461 l 765 461 l 765 0 z m 740 1088 l 581 1275 l 422 1275 l 263 1088 l 369 1088 l 501 1207 l 636 1088 z "},"ĥ":{"ha":772,"x_min":null,"x_max":null,"o":"m 675 0 l 675 550 b 446 749 675 672 588 749 b 213 628 343 749 281 717 l 213 1013 l 97 1013 l 97 0 l 213 0 l 213 401 b 410 647 213 550 290 647 b 560 504 492 647 560 600 l 560 0 z m 625 1088 l 465 1275 l 307 1275 l 147 1088 l 254 1088 l 386 1207 l 521 1088 z "},"Ħ":{"ha":1003,"x_min":null,"x_max":null,"o":"m 958 778 l 958 842 l 894 842 l 894 1013 l 765 1013 l 765 842 l 244 842 l 244 1013 l 115 1013 l 115 842 l 51 842 l 51 778 l 115 778 l 115 0 l 244 0 l 244 461 l 765 461 l 765 0 l 894 0 l 894 778 z m 765 575 l 244 575 l 244 778 l 765 778 z "},"ħ":{"ha":824,"x_min":null,"x_max":null,"o":"m 729 0 l 729 550 b 500 749 729 672 642 749 b 267 628 397 749 335 717 l 267 764 l 440 836 l 440 904 l 267 833 l 267 1013 l 151 1013 l 151 786 l 94 763 l 94 693 l 151 717 l 151 0 l 267 0 l 267 401 b 464 647 267 550 344 647 b 614 504 546 647 614 600 l 614 0 z "},"Ĩ":{"ha":386,"x_min":null,"x_max":null,"o":"m 268 0 l 268 1013 l 139 1013 l 139 0 z m 417 1253 l 336 1253 b 285 1201 325 1218 310 1201 b 197 1226 267 1201 232 1211 b 100 1253 139 1250 128 1253 b -19 1110 39 1253 -4 1201 l 61 1110 b 107 1161 69 1142 86 1161 b 175 1143 122 1161 142 1156 b 293 1108 250 1114 267 1108 b 417 1253 361 1108 403 1157 z "},"ĩ":{"ha":386,"x_min":null,"x_max":null,"o":"m 251 0 l 251 728 l 136 728 l 136 0 z m 406 982 l 325 982 b 274 931 314 947 299 931 b 186 956 256 931 221 940 b 89 982 128 979 117 982 b -31 839 28 982 -15 931 l 50 839 b 96 890 58 871 75 890 b 164 872 111 890 131 885 b 282 838 239 843 256 838 b 406 982 350 838 392 886 z "},"Ī":{"ha":386,"x_min":null,"x_max":null,"o":"m 268 0 l 268 1013 l 139 1013 l 139 0 z m 393 1132 l 393 1229 l 13 1229 l 13 1132 z "},"ī":{"ha":386,"x_min":null,"x_max":null,"o":"m 251 0 l 251 728 l 136 728 l 136 0 z m 382 861 l 382 958 l 1 958 l 1 861 z "},"Ĭ":{"ha":386,"x_min":null,"x_max":null,"o":"m 268 0 l 268 1013 l 139 1013 l 139 0 z m 454 1265 l 356 1265 b 204 1196 350 1213 294 1196 b 51 1265 110 1196 60 1210 l -47 1265 b 201 1096 -44 1144 61 1096 b 454 1265 356 1096 443 1154 z "},"ĭ":{"ha":386,"x_min":null,"x_max":null,"o":"m 251 0 l 251 728 l 136 728 l 136 0 z m 401 1004 l 326 1004 b 190 913 304 949 250 913 b 54 1004 131 913 76 949 l -21 1004 b 190 817 -21 896 78 817 b 401 1004 303 817 401 896 z "},"Į":{"ha":386,"x_min":null,"x_max":null,"o":"m 296 -319 l 296 -211 l 226 -211 b 165 -150 188 -211 165 -190 b 188 -68 165 -117 172 -90 b 268 0 207 -37 235 -14 l 268 1013 l 139 1013 l 139 0 l 167 0 b 57 -185 94 -56 57 -111 b 226 -319 57 -274 142 -319 z "},"į":{"ha":386,"x_min":null,"x_max":null,"o":"m 293 -319 l 293 -211 l 224 -211 b 163 -150 185 -211 163 -190 b 185 -68 163 -117 169 -90 b 251 0 201 -40 225 -18 l 251 728 l 136 728 l 136 0 l 164 0 b 54 -185 92 -56 54 -111 b 224 -319 54 -274 139 -319 z m 265 838 l 265 982 l 121 982 l 121 838 z "},"İ":{"ha":386,"x_min":null,"x_max":null,"o":"m 268 0 l 268 1013 l 139 1013 l 139 0 z m 278 1108 l 278 1253 l 133 1253 l 133 1108 z "},"ı":{"ha":308,"x_min":null,"x_max":null,"o":"m 213 0 l 213 728 l 97 728 l 97 0 z "},"Ĳ":{"ha":1004,"x_min":null,"x_max":null,"o":"m 224 0 l 224 1013 l 94 1013 l 94 0 z m 910 260 l 910 1013 l 781 1013 l 781 307 b 625 83 781 140 724 83 b 474 267 528 83 474 149 l 474 325 l 344 325 l 344 243 b 624 -25 344 79 447 -25 b 910 260 800 -25 910 85 z "},"ĳ":{"ha":613,"x_min":null,"x_max":null,"o":"m 210 0 l 210 728 l 94 728 l 94 0 z m 225 838 l 225 982 l 81 982 l 81 838 z m 518 -151 l 518 728 l 403 728 l 403 -106 b 308 -201 403 -175 379 -206 l 281 -200 l 281 -299 b 319 -303 294 -301 301 -303 b 518 -151 450 -303 518 -250 z m 533 838 l 533 982 l 389 982 l 389 838 z "},"Ĵ":{"ha":694,"x_min":null,"x_max":null,"o":"m 592 260 l 592 1013 l 463 1013 l 463 307 b 307 83 463 140 406 83 b 156 267 210 83 156 149 l 156 325 l 26 325 l 26 243 b 306 -25 26 79 129 -25 b 592 260 482 -25 592 85 z m 767 1088 l 607 1275 l 449 1275 l 289 1088 l 396 1088 l 528 1207 l 663 1088 z "},"ĵ":{"ha":308,"x_min":null,"x_max":null,"o":"m 213 -151 l 213 728 l 97 728 l 97 -106 b 3 -201 97 -175 74 -206 l -25 -200 l -25 -299 b 14 -303 -11 -301 -4 -303 b 213 -151 144 -303 213 -250 z m 354 806 l 221 1014 l 89 1014 l -44 806 l 44 806 l 154 939 l 267 806 z "},"Ķ":{"ha":926,"x_min":null,"x_max":null,"o":"m 914 0 l 497 600 l 910 1013 l 743 1013 l 239 500 l 239 1013 l 110 1013 l 110 0 l 239 0 l 239 354 l 404 519 l 761 0 z m 568 -226 l 568 -83 l 429 -83 l 429 -222 l 506 -222 l 506 -233 b 429 -342 506 -303 479 -342 l 429 -394 b 568 -226 515 -394 568 -332 z "},"ķ":{"ha":694,"x_min":null,"x_max":null,"o":"m 697 0 l 400 476 l 653 728 l 504 728 l 196 419 l 196 1013 l 81 1013 l 81 0 l 196 0 l 196 283 l 308 394 l 554 0 z m 418 -226 l 418 -83 l 279 -83 l 279 -222 l 356 -222 l 356 -233 b 279 -342 356 -303 329 -342 l 279 -394 b 418 -226 365 -394 418 -332 z "},"Ĺ":{"ha":772,"x_min":null,"x_max":null,"o":"m 740 0 l 740 114 l 240 114 l 240 1013 l 111 1013 l 111 0 z m 461 1272 l 272 1272 l 113 1088 l 213 1088 z "},"ĺ":{"ha":308,"x_min":null,"x_max":null,"o":"m 210 0 l 210 1013 l 94 1013 l 94 0 z m 444 1272 l 256 1272 l 96 1088 l 196 1088 z "},"Ļ":{"ha":772,"x_min":null,"x_max":null,"o":"m 740 0 l 740 114 l 240 114 l 240 1013 l 111 1013 l 111 0 z m 497 -226 l 497 -83 l 358 -83 l 358 -222 l 435 -222 l 435 -233 b 358 -342 435 -303 408 -342 l 358 -394 b 497 -226 444 -394 497 -332 z "},"ļ":{"ha":308,"x_min":null,"x_max":null,"o":"m 210 0 l 210 1013 l 94 1013 l 94 0 z m 225 -226 l 225 -83 l 86 -83 l 86 -222 l 163 -222 l 163 -233 b 86 -342 163 -303 136 -342 l 86 -394 b 225 -226 172 -394 225 -332 z "},"Ľ":{"ha":772,"x_min":null,"x_max":null,"o":"m 740 0 l 740 114 l 240 114 l 240 1013 l 111 1013 l 111 0 z m 474 869 l 474 1013 l 335 1013 l 335 874 l 411 874 l 411 863 b 335 754 411 793 385 754 l 335 701 b 474 869 421 701 474 764 z "},"ľ":{"ha":308,"x_min":null,"x_max":null,"o":"m 210 0 l 210 1013 l 94 1013 l 94 0 z m 443 869 l 443 1013 l 304 1013 l 304 874 l 381 874 l 381 863 b 304 754 381 793 354 754 l 304 701 b 443 869 390 701 443 764 z "},"Ŀ":{"ha":772,"x_min":null,"x_max":null,"o":"m 740 0 l 740 114 l 240 114 l 240 1013 l 111 1013 l 111 0 z m 635 456 l 635 600 l 490 600 l 490 456 z "},"ŀ":{"ha":447,"x_min":null,"x_max":null,"o":"m 210 0 l 210 1013 l 94 1013 l 94 0 z m 449 456 l 449 600 l 304 600 l 304 456 z "},"Ł":{"ha":872,"x_min":null,"x_max":null,"o":"m 799 0 l 799 114 l 299 114 l 299 449 l 472 621 l 472 754 l 299 582 l 299 1013 l 169 1013 l 169 467 l 79 378 l 79 244 l 169 333 l 169 0 z "},"ł":{"ha":424,"x_min":null,"x_max":null,"o":"m 360 650 l 360 778 l 268 667 l 268 1013 l 153 1013 l 153 543 l 67 439 l 67 310 l 153 414 l 153 0 l 268 0 l 268 539 z "},"Ń":{"ha":1003,"x_min":null,"x_max":null,"o":"m 897 0 l 897 1013 l 775 1013 l 775 185 l 246 1013 l 106 1013 l 106 0 l 228 0 l 228 821 l 751 0 z m 800 1272 l 611 1272 l 451 1088 l 551 1088 z "},"ń":{"ha":772,"x_min":null,"x_max":null,"o":"m 676 0 l 676 550 b 446 749 676 671 586 749 b 204 606 338 749 268 707 l 204 728 l 97 728 l 97 0 l 213 0 l 213 401 b 411 647 213 550 293 647 b 561 504 503 647 561 592 l 561 0 z m 635 1013 l 478 1013 l 344 807 l 428 807 z "},"Ņ":{"ha":1003,"x_min":null,"x_max":null,"o":"m 897 0 l 897 1013 l 775 1013 l 775 185 l 246 1013 l 106 1013 l 106 0 l 228 0 l 228 821 l 751 0 z m 572 -226 l 572 -83 l 433 -83 l 433 -222 l 510 -222 l 510 -233 b 433 -342 510 -303 483 -342 l 433 -394 b 572 -226 519 -394 572 -332 z "},"ņ":{"ha":772,"x_min":null,"x_max":null,"o":"m 676 0 l 676 550 b 446 749 676 671 586 749 b 204 606 338 749 268 707 l 204 728 l 97 728 l 97 0 l 213 0 l 213 401 b 411 647 213 550 293 647 b 561 504 503 647 561 592 l 561 0 z m 457 -226 l 457 -83 l 318 -83 l 318 -222 l 394 -222 l 394 -233 b 318 -342 394 -303 368 -342 l 318 -394 b 457 -226 404 -394 457 -332 z "},"Ň":{"ha":1003,"x_min":null,"x_max":null,"o":"m 897 0 l 897 1013 l 775 1013 l 775 185 l 246 1013 l 106 1013 l 106 0 l 228 0 l 228 821 l 751 0 z m 742 1275 l 635 1275 l 503 1156 l 368 1275 l 264 1275 l 424 1088 l 582 1088 z "},"ň":{"ha":772,"x_min":null,"x_max":null,"o":"m 676 0 l 676 550 b 446 749 676 671 586 749 b 204 606 338 749 268 707 l 204 728 l 97 728 l 97 0 l 213 0 l 213 401 b 411 647 213 550 293 647 b 561 504 503 647 561 592 l 561 0 z m 585 1014 l 496 1014 l 386 881 l 274 1014 l 186 1014 l 319 806 l 451 806 z "},"Ŋ":{"ha":1003,"x_min":null,"x_max":null,"o":"m 897 -67 l 897 1013 l 775 1013 l 775 185 l 246 1013 l 106 1013 l 106 0 l 228 0 l 228 821 l 775 -37 b 613 -243 775 -143 711 -243 b 461 -60 515 -243 461 -178 l 332 -83 b 611 -351 332 -247 435 -351 b 897 -67 788 -351 897 -242 z "},"ŋ":{"ha":772,"x_min":null,"x_max":null,"o":"m 676 -151 l 676 550 b 446 749 676 671 586 749 b 204 606 338 749 268 707 l 204 728 l 97 728 l 97 0 l 213 0 l 213 401 b 411 647 213 550 293 647 b 561 504 503 647 561 592 l 561 -106 b 467 -201 561 -175 538 -206 l 439 -200 l 439 -299 b 478 -303 453 -301 460 -303 b 676 -151 608 -303 676 -250 z "},"Ō":{"ha":1081,"x_min":null,"x_max":null,"o":"m 1031 490 b 540 1038 1031 817 838 1038 b 53 499 250 1038 53 815 b 542 -25 53 182 250 -25 b 1031 490 839 -25 1031 193 z m 901 493 b 542 89 901 249 756 89 b 182 499 326 89 182 249 b 540 924 182 749 326 924 b 901 493 760 924 901 749 z m 729 1132 l 729 1229 l 349 1229 l 349 1132 z "},"ō":{"ha":772,"x_min":null,"x_max":null,"o":"m 708 358 b 378 749 708 610 588 749 b 50 364 174 749 50 608 b 379 -21 50 119 172 -21 b 708 358 583 -21 708 119 z m 588 360 b 379 86 588 189 507 86 b 171 364 250 86 171 188 b 379 642 171 539 250 642 b 588 360 510 642 588 540 z m 574 861 l 574 958 l 193 958 l 193 861 z "},"Ŏ":{"ha":1081,"x_min":null,"x_max":null,"o":"m 1031 490 b 540 1038 1031 817 838 1038 b 53 499 250 1038 53 815 b 542 -25 53 182 250 -25 b 1031 490 839 -25 1031 193 z m 901 493 b 542 89 901 249 756 89 b 182 499 326 89 182 249 b 540 924 182 749 326 924 b 901 493 760 924 901 749 z m 790 1265 l 692 1265 b 540 1196 686 1213 631 1196 b 388 1265 446 1196 396 1210 l 289 1265 b 538 1096 292 1144 397 1096 b 790 1265 692 1096 779 1154 z "},"ŏ":{"ha":772,"x_min":null,"x_max":null,"o":"m 708 358 b 378 749 708 610 588 749 b 50 364 174 749 50 608 b 379 -21 50 119 172 -21 b 708 358 583 -21 708 119 z m 588 360 b 379 86 588 189 507 86 b 171 364 250 86 171 188 b 379 642 171 539 250 642 b 588 360 510 642 588 540 z m 593 1004 l 518 1004 b 382 913 496 949 442 913 b 246 1004 322 913 268 949 l 171 1004 b 382 817 171 896 269 817 b 593 1004 494 817 593 896 z "},"Ő":{"ha":1081,"x_min":null,"x_max":null,"o":"m 1031 490 b 540 1038 1031 817 838 1038 b 53 499 250 1038 53 815 b 542 -25 53 182 250 -25 b 1031 490 839 -25 1031 193 z m 901 493 b 542 89 901 249 756 89 b 182 499 326 89 182 249 b 540 924 182 749 326 924 b 901 493 760 924 901 749 z m 661 1299 l 504 1299 l 371 1090 l 454 1090 z m 889 1299 l 732 1299 l 599 1090 l 682 1090 z "},"ő":{"ha":772,"x_min":null,"x_max":null,"o":"m 708 358 b 378 749 708 610 588 749 b 50 364 174 749 50 608 b 379 -21 50 119 172 -21 b 708 358 583 -21 708 119 z m 588 360 b 379 86 588 189 507 86 b 171 364 250 86 171 188 b 379 642 171 539 250 642 b 588 360 510 642 588 540 z m 507 1014 l 350 1014 l 217 806 l 300 806 z m 735 1014 l 578 1014 l 444 806 l 528 806 z "},"Œ":{"ha":1389,"x_min":null,"x_max":null,"o":"m 1332 0 l 1332 114 l 858 114 l 858 454 l 1314 454 l 1314 568 l 858 568 l 858 899 l 1325 899 l 1325 1013 l 729 1013 l 729 907 b 475 1029 671 990 589 1029 b 60 494 221 1029 60 825 b 474 -21 60 172 217 -21 b 729 110 586 -21 665 19 l 729 0 z m 729 260 b 474 93 674 147 590 93 b 189 500 288 93 189 232 b 475 915 189 771 286 915 b 729 749 592 915 674 861 z "},"œ":{"ha":1311,"x_min":null,"x_max":null,"o":"m 1249 325 b 1219 557 1249 436 1240 503 b 925 749 1172 676 1061 749 b 657 601 813 749 714 694 b 385 749 601 699 508 749 b 56 360 175 749 56 608 b 385 -21 56 121 175 -21 b 654 122 507 -21 596 26 b 924 -21 710 31 806 -21 b 1233 221 1089 -21 1204 74 l 1117 221 b 926 86 1085 136 1019 86 b 713 325 806 86 715 169 z m 593 356 b 385 86 593 193 513 86 b 176 360 256 86 176 193 b 385 642 176 535 256 642 b 593 356 515 642 593 535 z m 1124 419 l 715 419 b 924 642 725 554 807 642 b 1124 419 1042 642 1124 551 z "},"Ŕ":{"ha":1003,"x_min":null,"x_max":null,"o":"m 943 0 l 943 32 b 882 236 894 65 883 101 b 744 500 879 403 854 453 b 904 742 858 556 904 626 b 596 1013 904 917 794 1013 l 129 1013 l 129 0 l 258 0 l 258 436 l 592 436 b 758 256 706 436 760 381 l 757 165 b 786 0 756 103 768 42 z m 769 724 b 571 550 769 604 708 550 l 258 550 l 258 899 l 571 899 b 769 724 715 899 769 838 z m 800 1272 l 611 1272 l 451 1088 l 551 1088 z "},"ŕ":{"ha":463,"x_min":null,"x_max":null,"o":"m 446 626 l 446 744 b 401 749 426 747 417 749 b 203 596 326 749 269 704 l 203 728 l 97 728 l 97 0 l 213 0 l 213 378 b 446 626 213 542 267 624 z m 461 1013 l 304 1013 l 171 807 l 254 807 z "},"Ŗ":{"ha":1003,"x_min":null,"x_max":null,"o":"m 943 0 l 943 32 b 882 236 894 65 883 101 b 744 500 879 403 854 453 b 904 742 858 556 904 626 b 596 1013 904 917 794 1013 l 129 1013 l 129 0 l 258 0 l 258 436 l 592 436 b 758 256 706 436 760 381 l 757 165 b 786 0 756 103 768 42 z m 769 724 b 571 550 769 604 708 550 l 258 550 l 258 899 l 571 899 b 769 724 715 899 769 838 z m 572 -226 l 572 -83 l 433 -83 l 433 -222 l 510 -222 l 510 -233 b 433 -342 510 -303 483 -342 l 433 -394 b 572 -226 519 -394 572 -332 z "},"ŗ":{"ha":463,"x_min":null,"x_max":null,"o":"m 446 626 l 446 744 b 401 749 426 747 417 749 b 203 596 326 749 269 704 l 203 728 l 97 728 l 97 0 l 213 0 l 213 378 b 446 626 213 542 267 624 z m 226 -226 l 226 -83 l 88 -83 l 88 -222 l 164 -222 l 164 -233 b 88 -342 164 -303 138 -342 l 88 -394 b 226 -226 174 -394 226 -332 z "},"Ř":{"ha":1003,"x_min":null,"x_max":null,"o":"m 943 0 l 943 32 b 882 236 894 65 883 101 b 744 500 879 403 854 453 b 904 742 858 556 904 626 b 596 1013 904 917 794 1013 l 129 1013 l 129 0 l 258 0 l 258 436 l 592 436 b 758 256 706 436 760 381 l 757 165 b 786 0 756 103 768 42 z m 769 724 b 571 550 769 604 708 550 l 258 550 l 258 899 l 571 899 b 769 724 715 899 769 838 z m 742 1275 l 635 1275 l 503 1156 l 368 1275 l 264 1275 l 424 1088 l 582 1088 z "},"ř":{"ha":463,"x_min":null,"x_max":null,"o":"m 446 626 l 446 744 b 401 749 426 747 417 749 b 203 596 326 749 269 704 l 203 728 l 97 728 l 97 0 l 213 0 l 213 378 b 446 626 213 542 267 624 z m 411 1014 l 322 1014 l 213 881 l 100 1014 l 13 1014 l 146 806 l 278 806 z "},"Ś":{"ha":926,"x_min":null,"x_max":null,"o":"m 863 278 b 647 532 863 403 785 494 l 393 600 b 226 750 271 632 226 672 b 453 929 226 853 317 929 b 706 724 614 929 706 856 l 828 724 b 457 1038 828 922 690 1038 b 97 732 235 1038 97 915 b 296 496 97 608 163 531 l 547 429 b 733 265 675 396 733 344 b 475 89 733 154 650 89 b 189 329 283 89 189 185 l 67 329 b 467 -25 67 90 228 -25 b 863 278 724 -25 863 97 z m 763 1272 l 574 1272 l 414 1088 l 514 1088 z "},"ś":{"ha":694,"x_min":null,"x_max":null,"o":"m 638 204 b 432 401 638 313 576 367 l 321 428 b 186 532 226 450 186 481 b 340 642 186 599 246 642 b 486 525 433 642 483 601 l 608 525 b 344 749 607 668 513 749 b 65 526 175 749 65 661 b 296 317 65 413 124 358 l 404 290 b 517 194 485 271 517 247 b 347 86 517 126 449 86 b 169 222 243 86 185 111 l 47 222 b 338 -21 53 54 147 -21 b 638 204 521 -21 638 64 z m 596 1013 l 439 1013 l 306 807 l 389 807 z "},"Ŝ":{"ha":926,"x_min":null,"x_max":null,"o":"m 863 278 b 647 532 863 403 785 494 l 393 600 b 226 750 271 632 226 672 b 453 929 226 853 317 929 b 706 724 614 929 706 856 l 828 724 b 457 1038 828 922 690 1038 b 97 732 235 1038 97 915 b 296 496 97 608 163 531 l 547 429 b 733 265 675 396 733 344 b 475 89 733 154 650 89 b 189 329 283 89 189 185 l 67 329 b 467 -25 67 90 228 -25 b 863 278 724 -25 863 97 z m 703 1088 l 543 1275 l 385 1275 l 225 1088 l 332 1088 l 464 1207 l 599 1088 z "},"ŝ":{"ha":694,"x_min":null,"x_max":null,"o":"m 638 204 b 432 401 638 313 576 367 l 321 428 b 186 532 226 450 186 481 b 340 642 186 599 246 642 b 486 525 433 642 483 601 l 608 525 b 344 749 607 668 513 749 b 65 526 175 749 65 661 b 296 317 65 413 124 358 l 404 290 b 517 194 485 271 517 247 b 347 86 517 126 449 86 b 169 222 243 86 185 111 l 47 222 b 338 -21 53 54 147 -21 b 638 204 521 -21 638 64 z m 546 806 l 413 1014 l 281 1014 l 147 806 l 236 806 l 346 939 l 458 806 z "},"Ş":{"ha":926,"x_min":null,"x_max":null,"o":"m 863 278 b 647 532 863 403 785 494 l 393 600 b 226 750 271 632 226 672 b 453 929 226 853 317 929 b 706 724 614 929 706 856 l 828 724 b 457 1038 828 922 690 1038 b 97 732 235 1038 97 915 b 296 496 97 608 163 531 l 547 429 b 733 265 675 396 733 344 b 475 89 733 154 650 89 b 189 329 283 89 189 185 l 67 329 b 438 -25 67 100 215 -15 l 393 -128 l 417 -144 b 460 -139 435 -140 443 -139 b 524 -200 500 -139 524 -168 b 449 -262 524 -236 492 -262 b 325 -222 413 -262 389 -254 l 313 -217 l 283 -272 b 457 -319 369 -310 403 -319 b 628 -190 563 -319 628 -269 b 518 -75 628 -131 588 -75 l 486 -75 l 506 -24 b 863 278 738 -12 863 107 z "},"ş":{"ha":694,"x_min":null,"x_max":null,"o":"m 638 204 b 432 401 638 313 576 367 l 321 428 b 186 532 226 450 186 481 b 340 642 186 599 246 642 b 486 525 433 642 483 601 l 608 525 b 344 749 607 668 513 749 b 65 526 175 749 65 661 b 296 317 65 413 124 358 l 404 290 b 517 194 485 271 517 247 b 347 86 517 126 449 86 b 169 222 243 86 185 111 l 47 222 b 308 -21 53 63 138 -12 l 261 -128 l 285 -144 b 328 -139 303 -140 311 -139 b 392 -200 368 -139 392 -168 b 317 -262 392 -236 360 -262 b 193 -222 281 -262 257 -254 l 181 -217 l 151 -272 b 325 -319 238 -310 271 -319 b 496 -190 431 -319 496 -269 b 386 -75 496 -131 456 -75 l 354 -75 l 376 -19 b 638 204 538 -8 638 74 z "},"Š":{"ha":926,"x_min":null,"x_max":null,"o":"m 863 278 b 647 532 863 403 785 494 l 393 600 b 226 750 271 632 226 672 b 453 929 226 853 317 929 b 706 724 614 929 706 856 l 828 724 b 457 1038 828 922 690 1038 b 97 732 235 1038 97 915 b 296 496 97 608 163 531 l 547 429 b 733 265 675 396 733 344 b 475 89 733 154 650 89 b 189 329 283 89 189 185 l 67 329 b 467 -25 67 90 228 -25 b 863 278 724 -25 863 97 z m 704 1275 l 597 1275 l 465 1156 l 331 1275 l 226 1275 l 386 1088 l 544 1088 z "},"š":{"ha":694,"x_min":null,"x_max":null,"o":"m 638 204 b 432 401 638 313 576 367 l 321 428 b 186 532 226 450 186 481 b 340 642 186 599 246 642 b 486 525 433 642 483 601 l 608 525 b 344 749 607 668 513 749 b 65 526 175 749 65 661 b 296 317 65 413 124 358 l 404 290 b 517 194 485 271 517 247 b 347 86 517 126 449 86 b 169 222 243 86 185 111 l 47 222 b 338 -21 53 54 147 -21 b 638 204 521 -21 638 64 z m 546 1014 l 457 1014 l 347 881 l 235 1014 l 147 1014 l 281 806 l 413 806 z "},"Ţ":{"ha":849,"x_min":null,"x_max":null,"o":"m 824 899 l 824 1013 l 29 1013 l 29 899 l 363 899 l 363 0 l 386 0 l 331 -128 l 354 -144 b 397 -139 372 -140 381 -139 b 461 -200 438 -139 461 -168 b 386 -262 461 -236 429 -262 b 263 -222 350 -262 326 -254 l 250 -217 l 221 -272 b 394 -319 307 -310 340 -319 b 565 -190 500 -319 565 -269 b 456 -75 565 -131 525 -75 l 424 -75 l 453 0 l 492 0 l 492 899 z "},"ţ":{"ha":386,"x_min":null,"x_max":null,"o":"m 371 -190 b 261 -75 371 -131 331 -75 l 229 -75 l 254 -10 l 258 -10 b 353 0 286 -10 314 -7 l 353 97 b 297 92 338 93 319 92 b 233 157 247 92 233 106 l 233 633 l 353 633 l 353 728 l 233 728 l 233 928 l 118 928 l 118 728 l 19 728 l 19 633 l 118 633 l 118 106 b 192 0 118 53 143 17 l 136 -128 l 160 -144 b 203 -139 178 -140 186 -139 b 267 -200 243 -139 267 -168 b 192 -262 267 -236 235 -262 b 68 -222 156 -262 132 -254 l 56 -217 l 26 -272 b 200 -319 113 -310 146 -319 b 371 -190 306 -319 371 -269 z "},"Ť":{"ha":849,"x_min":null,"x_max":null,"o":"m 824 899 l 824 1013 l 29 1013 l 29 899 l 363 899 l 363 0 l 492 0 l 492 899 z m 668 1275 l 561 1275 l 429 1156 l 294 1275 l 190 1275 l 350 1088 l 508 1088 z "},"ť":{"ha":386,"x_min":null,"x_max":null,"o":"m 353 0 l 353 97 b 297 92 338 93 319 92 b 233 157 247 92 233 106 l 233 633 l 353 633 l 353 728 l 233 728 l 233 928 l 118 928 l 118 728 l 19 728 l 19 633 l 118 633 l 118 106 b 258 -10 118 32 168 -10 b 353 0 286 -10 314 -7 z m 419 943 l 419 1086 l 281 1086 l 281 947 l 357 947 l 357 936 b 281 828 357 867 331 828 l 281 775 b 419 943 367 775 419 838 z "},"Ũ":{"ha":1003,"x_min":null,"x_max":null,"o":"m 896 308 l 896 1013 l 767 1013 l 767 308 b 506 89 767 172 668 89 b 247 308 354 89 247 161 l 247 1013 l 118 1013 l 118 308 b 506 -25 118 103 265 -25 b 896 308 743 -25 896 106 z m 714 1253 l 633 1253 b 582 1201 622 1218 607 1201 b 494 1226 564 1201 529 1211 b 397 1253 436 1250 425 1253 b 278 1110 336 1253 293 1201 l 358 1110 b 404 1161 367 1142 383 1161 b 472 1143 419 1161 439 1156 b 590 1108 547 1114 564 1108 b 714 1253 658 1108 700 1157 z "},"ũ":{"ha":772,"x_min":null,"x_max":null,"o":"m 669 0 l 669 728 l 554 728 l 554 326 b 356 81 554 178 476 81 b 206 224 264 81 206 136 l 206 728 l 90 728 l 90 178 b 322 -21 90 57 181 -21 b 565 113 429 -21 497 17 l 565 0 z m 597 982 l 517 982 b 465 931 506 947 490 931 b 378 956 447 931 413 940 b 281 982 319 979 308 982 b 161 839 219 982 176 931 l 242 839 b 288 890 250 871 267 890 b 356 872 303 890 322 885 b 474 838 431 843 447 838 b 597 982 542 838 583 886 z "},"Ū":{"ha":1003,"x_min":null,"x_max":null,"o":"m 896 308 l 896 1013 l 767 1013 l 767 308 b 506 89 767 172 668 89 b 247 308 354 89 247 161 l 247 1013 l 118 1013 l 118 308 b 506 -25 118 103 265 -25 b 896 308 743 -25 896 106 z m 690 1132 l 690 1229 l 310 1229 l 310 1132 z "},"ū":{"ha":772,"x_min":null,"x_max":null,"o":"m 669 0 l 669 728 l 554 728 l 554 326 b 356 81 554 178 476 81 b 206 224 264 81 206 136 l 206 728 l 90 728 l 90 178 b 322 -21 90 57 181 -21 b 565 113 429 -21 497 17 l 565 0 z m 574 861 l 574 958 l 193 958 l 193 861 z "},"Ŭ":{"ha":1003,"x_min":null,"x_max":null,"o":"m 896 308 l 896 1013 l 767 1013 l 767 308 b 506 89 767 172 668 89 b 247 308 354 89 247 161 l 247 1013 l 118 1013 l 118 308 b 506 -25 118 103 265 -25 b 896 308 743 -25 896 106 z m 751 1265 l 653 1265 b 501 1196 647 1213 592 1196 b 349 1265 407 1196 357 1210 l 250 1265 b 499 1096 253 1144 358 1096 b 751 1265 653 1096 740 1154 z "},"ŭ":{"ha":772,"x_min":null,"x_max":null,"o":"m 669 0 l 669 728 l 554 728 l 554 326 b 356 81 554 178 476 81 b 206 224 264 81 206 136 l 206 728 l 90 728 l 90 178 b 322 -21 90 57 181 -21 b 565 113 429 -21 497 17 l 565 0 z m 593 1004 l 518 1004 b 382 913 496 949 442 913 b 246 1004 322 913 268 949 l 171 1004 b 382 817 171 896 269 817 b 593 1004 494 817 593 896 z "},"Ů":{"ha":1003,"x_min":null,"x_max":null,"o":"m 896 308 l 896 1013 l 767 1013 l 767 308 b 506 89 767 172 668 89 b 247 308 354 89 247 161 l 247 1013 l 118 1013 l 118 308 b 506 -25 118 103 265 -25 b 896 308 743 -25 896 106 z m 636 1200 b 503 1335 636 1275 576 1335 b 368 1203 429 1335 368 1274 b 503 1068 368 1129 429 1068 b 636 1200 575 1068 636 1128 z m 569 1200 b 503 1135 569 1165 539 1135 b 435 1203 465 1135 435 1165 b 503 1268 435 1238 465 1268 b 569 1200 540 1268 569 1239 z "},"ů":{"ha":772,"x_min":null,"x_max":null,"o":"m 669 0 l 669 728 l 554 728 l 554 326 b 356 81 554 178 476 81 b 206 224 264 81 206 136 l 206 728 l 90 728 l 90 178 b 322 -21 90 57 181 -21 b 565 113 429 -21 497 17 l 565 0 z m 519 908 b 386 1043 519 983 460 1043 b 251 911 313 1043 251 982 b 386 776 251 838 313 776 b 519 908 458 776 519 836 z m 453 908 b 386 843 453 874 422 843 b 318 911 349 843 318 874 b 386 976 318 946 349 976 b 453 908 424 976 453 947 z "},"Ű":{"ha":1003,"x_min":null,"x_max":null,"o":"m 896 308 l 896 1013 l 767 1013 l 767 308 b 506 89 767 172 668 89 b 247 308 354 89 247 161 l 247 1013 l 118 1013 l 118 308 b 506 -25 118 103 265 -25 b 896 308 743 -25 896 106 z m 622 1299 l 465 1299 l 332 1090 l 415 1090 z m 850 1299 l 693 1299 l 560 1090 l 643 1090 z "},"ű":{"ha":772,"x_min":null,"x_max":null,"o":"m 669 0 l 669 728 l 554 728 l 554 326 b 356 81 554 178 476 81 b 206 224 264 81 206 136 l 206 728 l 90 728 l 90 178 b 322 -21 90 57 181 -21 b 565 113 429 -21 497 17 l 565 0 z m 507 1014 l 350 1014 l 217 806 l 300 806 z m 735 1014 l 578 1014 l 444 806 l 528 806 z "},"Ų":{"ha":1003,"x_min":null,"x_max":null,"o":"m 896 308 l 896 1013 l 767 1013 l 767 308 b 506 89 767 172 668 89 b 247 308 354 89 247 161 l 247 1013 l 118 1013 l 118 308 b 506 -25 118 103 265 -25 l 514 -25 b 435 -185 463 -72 435 -122 b 604 -319 435 -274 519 -319 l 674 -319 l 674 -211 l 604 -211 b 543 -150 565 -211 543 -190 b 667 -1 543 -79 599 -24 b 896 308 810 44 896 157 z "},"ų":{"ha":772,"x_min":null,"x_max":null,"o":"m 683 -319 l 683 -211 l 614 -211 b 553 -150 575 -211 553 -190 b 575 -68 553 -117 560 -90 b 669 0 596 -33 631 -10 l 669 728 l 554 728 l 554 326 b 356 81 554 178 476 81 b 206 224 264 81 206 136 l 206 728 l 90 728 l 90 178 b 322 -21 90 57 181 -21 b 565 113 429 -21 497 17 l 565 0 b 472 -86 526 -19 494 -49 b 444 -185 454 -115 444 -147 b 614 -319 444 -274 529 -319 z "},"Ŵ":{"ha":1311,"x_min":null,"x_max":null,"o":"m 1290 1013 l 1146 1013 l 960 190 l 729 1013 l 590 1013 l 365 190 l 175 1013 l 31 1013 l 290 0 l 432 0 l 658 832 l 892 0 l 1033 0 z m 894 1088 l 735 1275 l 576 1275 l 417 1088 l 524 1088 l 656 1207 l 790 1088 z "},"ŵ":{"ha":1003,"x_min":null,"x_max":null,"o":"m 983 728 l 853 728 l 708 161 l 565 728 l 424 728 l 285 161 l 136 728 l 8 728 l 219 0 l 350 0 l 490 571 l 638 0 l 769 0 z m 700 806 l 567 1014 l 435 1014 l 301 806 l 390 806 l 500 939 l 613 806 z "},"Ŷ":{"ha":926,"x_min":null,"x_max":null,"o":"m 918 1013 l 764 1013 l 475 519 l 178 1013 l 18 1013 l 408 397 l 408 0 l 538 0 l 538 397 z m 713 1088 l 553 1275 l 394 1275 l 235 1088 l 342 1088 l 474 1207 l 608 1088 z "},"ŷ":{"ha":694,"x_min":null,"x_max":null,"o":"m 664 728 l 539 728 l 338 161 l 151 728 l 28 728 l 274 -3 l 229 -118 b 136 -189 210 -169 186 -189 b 75 -181 119 -189 100 -186 l 75 -285 b 153 -303 99 -297 122 -303 b 340 -153 235 -303 301 -257 z m 546 806 l 413 1014 l 281 1014 l 147 806 l 236 806 l 346 939 l 458 806 z "},"Ÿ":{"ha":926,"x_min":null,"x_max":null,"o":"m 918 1013 l 764 1013 l 475 519 l 178 1013 l 18 1013 l 408 397 l 408 0 l 538 0 l 538 397 z m 425 1110 l 425 1251 l 299 1251 l 299 1110 z m 650 1110 l 650 1251 l 524 1251 l 524 1110 z "},"Ź":{"ha":849,"x_min":null,"x_max":null,"o":"m 810 0 l 810 114 l 201 114 l 807 896 l 807 1013 l 78 1013 l 78 899 l 647 899 l 39 114 l 39 0 z m 742 1272 l 553 1272 l 393 1088 l 493 1088 z "},"ź":{"ha":694,"x_min":null,"x_max":null,"o":"m 635 0 l 635 101 l 183 101 l 615 625 l 615 728 l 72 728 l 72 626 l 478 626 l 43 104 l 43 0 z m 596 1013 l 439 1013 l 306 807 l 389 807 z "},"Ż":{"ha":849,"x_min":null,"x_max":null,"o":"m 810 0 l 810 114 l 201 114 l 807 896 l 807 1013 l 78 1013 l 78 899 l 647 899 l 39 114 l 39 0 z m 517 1108 l 517 1253 l 372 1253 l 372 1108 z "},"ż":{"ha":694,"x_min":null,"x_max":null,"o":"m 635 0 l 635 101 l 183 101 l 615 625 l 615 728 l 72 728 l 72 626 l 478 626 l 43 104 l 43 0 z m 419 838 l 419 982 l 275 982 l 275 838 z "},"Ž":{"ha":849,"x_min":null,"x_max":null,"o":"m 810 0 l 810 114 l 201 114 l 807 896 l 807 1013 l 78 1013 l 78 899 l 647 899 l 39 114 l 39 0 z m 683 1275 l 576 1275 l 444 1156 l 310 1275 l 206 1275 l 365 1088 l 524 1088 z "},"ž":{"ha":694,"x_min":null,"x_max":null,"o":"m 635 0 l 635 101 l 183 101 l 615 625 l 615 728 l 72 728 l 72 626 l 478 626 l 43 104 l 43 0 z m 546 1014 l 457 1014 l 347 881 l 235 1014 l 147 1014 l 281 806 l 413 806 z "},"ſ":{"ha":386,"x_min":null,"x_max":null,"o":"m 358 914 l 358 1010 b 293 1017 332 1015 317 1017 b 122 851 186 1017 122 956 l 122 0 l 238 0 l 238 842 b 318 915 238 890 265 915 b 358 914 328 915 332 915 z "},"–":{"ha":772,"x_min":null,"x_max":null,"o":"m 771 333 l 771 433 l 0 433 l 0 333 z "},"—":{"ha":1389,"x_min":null,"x_max":null,"o":"m 1389 333 l 1389 433 l 0 433 l 0 333 z "},"‘":{"ha":308,"x_min":null,"x_max":null,"o":"m 219 663 l 219 807 l 153 807 b 219 932 153 886 171 925 l 219 985 b 90 803 136 978 90 913 l 90 663 z "},"’":{"ha":308,"x_min":null,"x_max":null,"o":"m 218 872 l 218 1013 l 89 1013 l 89 868 l 156 868 b 89 743 156 788 139 750 l 89 690 b 218 872 172 697 218 761 z "},"“":{"ha":463,"x_min":null,"x_max":null,"o":"m 196 663 l 196 807 l 129 807 b 196 932 129 886 147 925 l 196 985 b 67 803 113 978 67 913 l 67 663 z m 415 663 l 415 807 l 349 807 b 415 932 349 886 367 925 l 415 985 b 286 803 332 978 286 913 l 286 663 z "},"”":{"ha":463,"x_min":null,"x_max":null,"o":"m 197 844 l 197 985 l 68 985 l 68 840 l 135 840 b 68 715 135 760 118 722 l 68 663 b 197 844 151 669 197 733 z m 419 844 l 419 985 l 290 985 l 290 840 l 357 840 b 290 715 357 760 340 722 l 290 663 b 419 844 374 669 419 733 z "},"…":{"ha":1389,"x_min":null,"x_max":null,"o":"m 304 0 l 304 144 l 160 144 l 160 0 z m 767 0 l 767 144 l 622 144 l 622 0 z m 1229 0 l 1229 144 l 1085 144 l 1085 0 z "},"€":{"ha":772,"x_min":null,"x_max":null,"o":"m 754 892 b 488 985 663 957 583 985 b 121 608 282 985 154 825 l 33 608 l 3 526 l 113 526 b 110 469 110 500 110 486 l 110 435 l 33 435 l 3 353 l 118 353 b 479 -21 157 132 260 -21 b 710 44 563 -21 639 1 l 710 174 b 479 88 597 107 547 88 b 244 353 358 88 279 169 l 542 353 l 575 435 l 233 435 b 232 476 232 456 232 467 b 235 526 232 492 232 504 l 610 526 l 642 608 l 247 608 b 478 879 286 793 358 879 b 710 781 551 879 608 856 z "}}}
